999
dxfrw 0.6.3
  0
SECTION
  2
HEADER
  9
$ACADVER
  1
AC1021
  9
$DWGCODEPAGE
  3
ANSI_1252
  9
$INSBASE
 10
0
 20
0
 30
0
  9
$EXTMIN
 10
-31.99317166352949
 20
-27.4424551857936
 30
0
  9
$EXTMAX
 10
234.2182277046668
 20
122.7573331456397
 30
0
  9
$LIMMIN
 10
0
 20
0
  9
$LIMMAX
 10
420
 20
297
  9
$ORTHOMODE
 70
    0
  9
$REGENMODE
 70
    1
  9
$FILLMODE
 70
    1
  9
$QTEXTMODE
 70
    0
  9
$MIRRTEXT
 70
    0
  9
$LTSCALE
 40
1
  9
$ATTMODE
 70
    0
  9
$TEXTSIZE
 40
2.5
  9
$TRACEWID
 40
15.68
  9
$TEXTSTYLE
  7
STANDARD
  9
$CLAYER
  8
cotas
  9
$CELTYPE
  6
BYLAYER
  9
$CECOLOR
 62
  256
  9
$CELTSCALE
 40
1
  9
$DISPSILH
 70
    0
  9
$DIMSCALE
 40
1
  9
$DIMASZ
 40
2.5
  9
$DIMEXO
 40
0.625
  9
$DIMDLI
 40
3.75
  9
$DIMRND
 40
0
  9
$DIMDLE
 40
0
  9
$DIMEXE
 40
1.25
  9
$DIMTP
 40
0
  9
$DIMTM
 40
0
  9
$DIMTXT
 40
2.5
  9
$DIMCEN
 40
2.5
  9
$DIMTSZ
 40
0
  9
$DIMTOL
 70
    0
  9
$DIMLIM
 70
    0
  9
$DIMTIH
 70
    0
  9
$DIMTOH
 70
    0
  9
$DIMSE1
 70
    0
  9
$DIMSE2
 70
    0
  9
$DIMTAD
 70
    1
  9
$DIMZIN
 70
    1
  9
$DIMBLK
  1

  9
$DIMASO
 70
    1
  9
$DIMSHO
 70
    1
  9
$DIMPOST
  1

  9
$DIMAPOST
  1

  9
$DIMALT
 70
    0
  9
$DIMALTD
 70
    3
  9
$DIMALTF
 40
0.03937
  9
$DIMLFAC
 40
1
  9
$DIMTOFL
 70
    1
  9
$DIMTVP
 40
0
  9
$DIMTIX
 70
    0
  9
$DIMSOXD
 70
    0
  9
$DIMSAH
 70
    0
  9
$DIMBLK1
  1

  9
$DIMBLK2
  1

  9
$DIMSTYLE
  2
STANDARD
  9
$DIMCLRD
 70
    0
  9
$DIMCLRE
 70
    0
  9
$DIMCLRT
 70
    0
  9
$DIMTFAC
 40
1
  9
$DIMGAP
 40
0.625
  9
$DIMJUST
 70
    0
  9
$DIMSD1
 70
    0
  9
$DIMSD2
 70
    0
  9
$DIMTOLJ
 70
    0
  9
$DIMTZIN
 70
    8
  9
$DIMALTZ
 70
    0
  9
$DIMALTTZ
 70
    0
  9
$DIMUPT
 70
    0
  9
$DIMDEC
 70
    4
  9
$DIMTDEC
 70
    2
  9
$DIMALTU
 70
    2
  9
$DIMALTTD
 70
    3
  9
$DIMTXSTY
  7
standard
  9
$DIMAUNIT
 70
    0
  9
$DIMADEC
 70
    2
  9
$DIMALTRND
 40
0
  9
$DIMAZIN
 70
    0
  9
$DIMDSEP
 70
   44
  9
$DIMATFIT
 70
    3
  9
$DIMFRAC
 70
    0
  9
$DIMLDRBLK
  1
STANDARD
  9
$DIMLUNIT
 70
    2
  9
$DIMLWD
 70
   -2
  9
$DIMLWE
 70
   -2
  9
$DIMTMOVE
 70
    0
  9
$DIMFXL
 40
1
  9
$DIMFXLON
 70
    0
  9
$DIMJOGANG
 40
0.7854
  9
$DIMTFILL
 70
    0
  9
$DIMTFILLCLR
 70
    0
  9
$DIMARCSYM
 70
    0
  9
$DIMLTYPE
  6

  9
$DIMLTEX1
  6

  9
$DIMLTEX2
  6

  9
$LUNITS
 70
    2
  9
$LUPREC
 70
    4
  9
$SKETCHINC
 40
1
  9
$FILLETRAD
 40
0
  9
$AUNITS
 70
    0
  9
$AUPREC
 70
    2
  9
$MENU
  1
.
  9
$ELEVATION
 40
0
  9
$PELEVATION
 40
0
  9
$THICKNESS
 40
0
  9
$LIMCHECK
 70
    0
  9
$CHAMFERA
 40
0
  9
$CHAMFERB
 40
0
  9
$CHAMFERC
 40
0
  9
$CHAMFERD
 40
0
  9
$SKPOLY
 70
    0
  9
$USRTIMER
 70
    1
  9
$ANGBASE
 50
0
  9
$ANGDIR
 70
    0
  9
$PDMODE
 70
   34
  9
$PDSIZE
 40
0
  9
$PLINEWID
 40
0
  9
$SPLFRAME
 70
    0
  9
$SPLINETYPE
 70
    2
  9
$SPLINESEGS
 70
    8
  9
$HANDSEED
  5
20000
  9
$SURFTAB1
 70
    6
  9
$SURFTAB2
 70
    6
  9
$SURFTYPE
 70
    6
  9
$SURFU
 70
    6
  9
$SURFV
 70
    6
  9
$UCSBASE
  2

  9
$UCSNAME
  2

  9
$UCSORG
 10
0
 20
0
 30
0
  9
$UCSXDIR
 10
1
 20
0
 30
0
  9
$UCSYDIR
 10
0
 20
1
 30
0
  9
$UCSORTHOREF
  2

  9
$UCSORTHOVIEW
 70
    0
  9
$UCSORGTOP
 10
0
 20
0
 30
0
  9
$UCSORGBOTTOM
 10
0
 20
0
 30
0
  9
$UCSORGLEFT
 10
0
 20
0
 30
0
  9
$UCSORGRIGHT
 10
0
 20
0
 30
0
  9
$UCSORGFRONT
 10
0
 20
0
 30
0
  9
$UCSORGBACK
 10
0
 20
0
 30
0
  9
$PUCSBASE
  2

  9
$PUCSNAME
  2

  9
$PUCSORG
 10
0
 20
0
 30
0
  9
$PUCSXDIR
 10
1
 20
0
 30
0
  9
$PUCSYDIR
 10
0
 20
1
 30
0
  9
$PUCSORTHOREF
  2

  9
$PUCSORTHOVIEW
 70
    0
  9
$PUCSORGTOP
 10
0
 20
0
 30
0
  9
$PUCSORGBOTTOM
 10
0
 20
0
 30
0
  9
$PUCSORGLEFT
 10
0
 20
0
 30
0
  9
$PUCSORGRIGHT
 10
0
 20
0
 30
0
  9
$PUCSORGFRONT
 10
0
 20
0
 30
0
  9
$PUCSORGBACK
 10
0
 20
0
 30
0
  9
$USERI1
 70
    0
  9
$USERI2
 70
    0
  9
$USERI3
 70
    0
  9
$USERI4
 70
    0
  9
$USERI5
 70
    0
  9
$USERR1
 40
0
  9
$USERR2
 40
0
  9
$USERR3
 40
0
  9
$USERR4
 40
0
  9
$USERR5
 40
0
  9
$WORLDVIEW
 70
    1
  9
$SHADEDGE
 70
    3
  9
$SHADEDIF
 70
   70
  9
$TILEMODE
 70
    1
  9
$MAXACTVP
 70
   64
  9
$PINSBASE
 10
40.3112004602803
 20
54.45554222630754
 30
0
  9
$PLIMCHECK
 70
    0
  9
$PEXTMIN
 10
0
 20
0
 30
0
  9
$PEXTMAX
 10
0
 20
0
 30
0
  9
$GRIDMODE
 70
    0
  9
$SNAPSTYLE
 70
    0
  9
$GRIDUNIT
 10
0
 20
0
  9
$PLIMMIN
 10
0
 20
0
  9
$PLIMMAX
 10
297
 20
210
  9
$UNITMODE
 70
    0
  9
$VISRETAIN
 70
    1
  9
$PLINEGEN
 70
    0
  9
$PSLTSCALE
 70
    1
  9
$TREEDEPTH
 70
 3020
  9
$CMLSTYLE
  2
Standard
  9
$CMLJUST
 70
    0
  9
$CMLSCALE
 40
20
  9
$PROXYGRAPHICS
 70
    1
  9
$MEASUREMENT
 70
    1
  9
$CELWEIGHT
370
   -1
  9
$ENDCAPS
280
    0
  9
$JOINSTYLE
280
    0
  9
$LWDISPLAY
290
    0
  9
$INSUNITS
 70
    4
  9
$HYPERLINKBASE
  1

  9
$STYLESHEET
  1

  9
$XEDIT
290
    1
  9
$CEPSNTYPE
380
    0
  9
$PSTYLEMODE
290
    1
  9
$EXTNAMES
290
    1
  9
$PSVPSCALE
 40
1.04948
  9
$OLESTARTUP
290
    0
  9
$SORTENTS
280
  127
  9
$INDEXCTL
280
    0
  9
$HIDETEXT
280
    1
  9
$XCLIPFRAME
290
    0
  9
$HALOGAP
280
    0
  9
$OBSCOLOR
 70
  257
  9
$OBSLTYPE
280
    0
  9
$INTERSECTIONDISPLAY
280
    0
  9
$INTERSECTIONCOLOR
 70
  257
  9
$DIMASSOC
280
    1
  9
$PROJECTNAME
  1

  9
$CAMERADISPLAY
290
    0
  9
$LENSLENGTH
 40
50
  9
$CAMERAHEIGHT
 40
0
  9
$STEPSPERSEC
 40
2
  9
$STEPSIZE
 40
50
  9
$3DDWFPREC
 40
2
  9
$PSOLWIDTH
 40
5
  9
$PSOLHEIGHT
 40
80
  9
$LOFTANG1
 40
1.570796326794897
  9
$LOFTANG2
 40
1.570796326794897
  9
$LOFTMAG1
 40
0
  9
$LOFTMAG2
 40
0
  9
$LOFTPARAM
 70
    7
  9
$LOFTNORMALS
280
    1
  9
$LATITUDE
 40
1
  9
$LONGITUDE
 40
1
  9
$NORTHDIRECTION
 40
0
  9
$TIMEZONE
 70
-8000
  9
$LIGHTGLYPHDISPLAY
280
    1
  9
$TILEMODELIGHTSYNCH
280
    1
  9
$SOLIDHIST
280
    1
  9
$SHOWHIST
280
    1
  9
$DWFFRAME
280
    2
  9
$DGNFRAME
280
    0
  9
$REALWORLDSCALE
290
    1
  9
$INTERFERECOLOR
 62
    1
  9
$CSHADOW
280
    0
  9
$SHADOWPLANELOCATION
 40
0
  0
ENDSEC
  0
SECTION
  2
CLASSES
  0
ENDSEC
  0
SECTION
  2
TABLES
  0
TABLE
  2
VPORT
  5
8
330
0
100
AcDbSymbolTable
 70
    1
  0
VPORT
  5
31
330
2
100
AcDbSymbolTableRecord
100
AcDbViewportTableRecord
  2
*ACTIVE
 70
    0
 10
0
 20
0
 11
1
 21
1
 12
94.80824070587813
 22
41.96658890069017
 13
0
 23
0
 14
10
 24
10
 15
10
 25
10
 16
0
 26
0
 36
1
 17
0
 27
0
 37
0
 40
58.55803102421885
 41
1.888095238095238
 42
50
 43
0
 44
0
 50
0
 51
0
 71
    0
 72
  100
 73
    1
 74
    3
 75
    0
 76
    0
 77
    0
 78
    0
281
    0
 65
    1
110
0
120
0
130
0
111
1
121
0
131
0
112
0
122
1
132
0
 79
    0
146
0
348
10020
 60
    7
 61
    5
292
1
282
    1
141
0
142
0
 63
  250
421
3358443
  0
ENDTAB
  0
TABLE
  2
LTYPE
  5
5
330
0
100
AcDbSymbolTable
 70
    4
  0
LTYPE
  5
14
330
5
100
AcDbSymbolTableRecord
100
AcDbLinetypeTableRecord
  2
ByBlock
 70
    0
  3

 72
   65
 73
    0
 40
0
  0
LTYPE
  5
15
330
5
100
AcDbSymbolTableRecord
100
AcDbLinetypeTableRecord
  2
ByLayer
 70
    0
  3

 72
   65
 73
    0
 40
0
  0
LTYPE
  5
16
330
5
100
AcDbSymbolTableRecord
100
AcDbLinetypeTableRecord
  2
Continuous
 70
    0
  3
Solid line
 72
   65
 73
    0
 40
0
  0
LTYPE
  5
32
330
5
100
AcDbSymbolTableRecord
100
AcDbLinetypeTableRecord
  2
DOT
 70
    0
  3
Dot . . . . . . . . . . . . . . . . . . . . . .
 72
   65
 73
    2
 40
6.35
 49
0
 74
    0
 49
-6.35
 74
    0
  0
LTYPE
  5
33
330
5
100
AcDbSymbolTableRecord
100
AcDbLinetypeTableRecord
  2
DOTTINY
 70
    0
  3
Dot (.15x) .....................................
 72
   65
 73
    2
 40
0.9525
 49
0
 74
    0
 49
-0.9525
 74
    0
  0
LTYPE
  5
34
330
5
100
AcDbSymbolTableRecord
100
AcDbLinetypeTableRecord
  2
DOT2
 70
    0
  3
Dot (.5x) .....................................
 72
   65
 73
    2
 40
3.175
 49
0
 74
    0
 49
-3.175
 74
    0
  0
LTYPE
  5
35
330
5
100
AcDbSymbolTableRecord
100
AcDbLinetypeTableRecord
  2
DOTX2
 70
    0
  3
Dot (2x) .  .  .  .  .  .  .  .  .  .  .  .  .
 72
   65
 73
    2
 40
12.7
 49
0
 74
    0
 49
-12.7
 74
    0
  0
LTYPE
  5
36
330
5
100
AcDbSymbolTableRecord
100
AcDbLinetypeTableRecord
  2
DASHED
 70
    0
  3
Dashed _ _ _ _ _ _ _ _ _ _ _ _ _ _ _ _ _
 72
   65
 73
    2
 40
19.05
 49
12.7
 74
    0
 49
-6.35
 74
    0
  0
LTYPE
  5
37
330
5
100
AcDbSymbolTableRecord
100
AcDbLinetypeTableRecord
  2
DASHEDTINY
 70
    0
  3
Dashed (.15x) _ _ _ _ _ _ _ _ _ _ _ _ _ _ _ _ _
 72
   65
 73
    2
 40
2.8575
 49
1.905
 74
    0
 49
-0.9525
 74
    0
  0
LTYPE
  5
38
330
5
100
AcDbSymbolTableRecord
100
AcDbLinetypeTableRecord
  2
DASHED2
 70
    0
  3
Dashed (.5x) _ _ _ _ _ _ _ _ _ _ _ _ _ _ _ _ _
 72
   65
 73
    2
 40
9.524999999999999
 49
6.35
 74
    0
 49
-3.175
 74
    0
  0
LTYPE
  5
39
330
5
100
AcDbSymbolTableRecord
100
AcDbLinetypeTableRecord
  2
DASHEDX2
 70
    0
  3
Dashed (2x) ____  ____  ____  ____  ____  ___
 72
   65
 73
    2
 40
38.09999999999999
 49
25.4
 74
    0
 49
-12.7
 74
    0
  0
LTYPE
  5
3A
330
5
100
AcDbSymbolTableRecord
100
AcDbLinetypeTableRecord
  2
DASHDOT
 70
    0
  3
Dash dot __ . __ . __ . __ . __ . __ . __ . __
 72
   65
 73
    4
 40
25.4
 49
12.7
 74
    0
 49
-6.35
 74
    0
 49
0
 74
    0
 49
-6.35
 74
    0
  0
LTYPE
  5
3B
330
5
100
AcDbSymbolTableRecord
100
AcDbLinetypeTableRecord
  2
DASHDOTTINY
 70
    0
  3
Dash dot (.15x) _._._._._._._._._._._._._._._.
 72
   65
 73
    4
 40
3.81
 49
1.905
 74
    0
 49
-0.9525
 74
    0
 49
0
 74
    0
 49
-0.9525
 74
    0
  0
LTYPE
  5
3C
330
5
100
AcDbSymbolTableRecord
100
AcDbLinetypeTableRecord
  2
DASHDOT2
 70
    0
  3
Dash dot (.5x) _._._._._._._._._._._._._._._.
 72
   65
 73
    4
 40
12.7
 49
6.35
 74
    0
 49
-3.175
 74
    0
 49
0
 74
    0
 49
-3.175
 74
    0
  0
LTYPE
  5
3D
330
5
100
AcDbSymbolTableRecord
100
AcDbLinetypeTableRecord
  2
DASHDOTX2
 70
    0
  3
Dash dot (2x) ____  .  ____  .  ____  .  ___
 72
   65
 73
    4
 40
50.8
 49
25.4
 74
    0
 49
-12.7
 74
    0
 49
0
 74
    0
 49
-12.7
 74
    0
  0
LTYPE
  5
3E
330
5
100
AcDbSymbolTableRecord
100
AcDbLinetypeTableRecord
  2
DIVIDE
 70
    0
  3
Divide ____ . . ____ . . ____ . . ____ . . ____
 72
   65
 73
    6
 40
31.75
 49
12.7
 74
    0
 49
-6.35
 74
    0
 49
0
 74
    0
 49
-6.35
 74
    0
 49
0
 74
    0
 49
-6.35
 74
    0
  0
LTYPE
  5
3F
330
5
100
AcDbSymbolTableRecord
100
AcDbLinetypeTableRecord
  2
DIVIDETINY
 70
    0
  3
Divide (.15x) __..__..__..__..__..__..__..__.._
 72
   65
 73
    6
 40
4.7625
 49
1.905
 74
    0
 49
-0.9525
 74
    0
 49
0
 74
    0
 49
-0.9525
 74
    0
 49
0
 74
    0
 49
-0.9525
 74
    0
  0
LTYPE
  5
40
330
5
100
AcDbSymbolTableRecord
100
AcDbLinetypeTableRecord
  2
DIVIDE2
 70
    0
  3
Divide (.5x) __..__..__..__..__..__..__..__.._
 72
   65
 73
    6
 40
15.875
 49
6.35
 74
    0
 49
-3.175
 74
    0
 49
0
 74
    0
 49
-3.175
 74
    0
 49
0
 74
    0
 49
-3.175
 74
    0
  0
LTYPE
  5
41
330
5
100
AcDbSymbolTableRecord
100
AcDbLinetypeTableRecord
  2
DIVIDEX2
 70
    0
  3
Divide (2x) ________  .  .  ________  .  .  _
 72
   65
 73
    6
 40
63.5
 49
25.4
 74
    0
 49
-12.7
 74
    0
 49
0
 74
    0
 49
-12.7
 74
    0
 49
0
 74
    0
 49
-12.7
 74
    0
  0
LTYPE
  5
42
330
5
100
AcDbSymbolTableRecord
100
AcDbLinetypeTableRecord
  2
BORDER
 70
    0
  3
Border __ __ . __ __ . __ __ . __ __ . __ __ .
 72
   65
 73
    6
 40
44.45
 49
12.7
 74
    0
 49
-6.35
 74
    0
 49
12.7
 74
    0
 49
-6.35
 74
    0
 49
0
 74
    0
 49
-6.35
 74
    0
  0
LTYPE
  5
43
330
5
100
AcDbSymbolTableRecord
100
AcDbLinetypeTableRecord
  2
BORDERTINY
 70
    0
  3
Border (.15x) __.__.__.__.__.__.__.__.__.__.__.
 72
   65
 73
    6
 40
6.6675
 49
1.905
 74
    0
 49
-0.9525
 74
    0
 49
1.905
 74
    0
 49
-0.9525
 74
    0
 49
0
 74
    0
 49
-0.9525
 74
    0
  0
LTYPE
  5
44
330
5
100
AcDbSymbolTableRecord
100
AcDbLinetypeTableRecord
  2
BORDER2
 70
    0
  3
Border (.5x) __.__.__.__.__.__.__.__.__.__.__.
 72
   65
 73
    6
 40
22.225
 49
6.35
 74
    0
 49
-3.175
 74
    0
 49
6.35
 74
    0
 49
-3.175
 74
    0
 49
0
 74
    0
 49
-3.175
 74
    0
  0
LTYPE
  5
45
330
5
100
AcDbSymbolTableRecord
100
AcDbLinetypeTableRecord
  2
BORDERX2
 70
    0
  3
Border (2x) ____  ____  .  ____  ____  .  ___
 72
   65
 73
    6
 40
88.89999999999999
 49
25.4
 74
    0
 49
-12.7
 74
    0
 49
25.4
 74
    0
 49
-12.7
 74
    0
 49
0
 74
    0
 49
-12.7
 74
    0
  0
LTYPE
  5
46
330
5
100
AcDbSymbolTableRecord
100
AcDbLinetypeTableRecord
  2
CENTER
 70
    0
  3
Center ____ _ ____ _ ____ _ ____ _ ____ _ ____
 72
   65
 73
    4
 40
50.8
 49
31.75
 74
    0
 49
-6.35
 74
    0
 49
6.35
 74
    0
 49
-6.35
 74
    0
  0
LTYPE
  5
47
330
5
100
AcDbSymbolTableRecord
100
AcDbLinetypeTableRecord
  2
CENTERTINY
 70
    0
  3
Center (.15x) ___ _ ___ _ ___ _ ___ _ ___ _ ___
 72
   65
 73
    4
 40
7.62
 49
4.7625
 74
    0
 49
-0.9525
 74
    0
 49
0.9525
 74
    0
 49
-0.9525
 74
    0
  0
LTYPE
  5
48
330
5
100
AcDbSymbolTableRecord
100
AcDbLinetypeTableRecord
  2
CENTER2
 70
    0
  3
Center (.5x) ___ _ ___ _ ___ _ ___ _ ___ _ ___
 72
   65
 73
    4
 40
28.575
 49
19.05
 74
    0
 49
-3.175
 74
    0
 49
3.175
 74
    0
 49
-3.175
 74
    0
  0
LTYPE
  5
49
330
5
100
AcDbSymbolTableRecord
100
AcDbLinetypeTableRecord
  2
CENTERX2
 70
    0
  3
Center (2x) ________  __  ________  __  _____
 72
   65
 73
    4
 40
101.6
 49
63.5
 74
    0
 49
-12.7
 74
    0
 49
12.7
 74
    0
 49
-12.7
 74
    0
  0
ENDTAB
  0
TABLE
  2
LAYER
  5
2
330
0
100
AcDbSymbolTable
 70
    1
  0
LAYER
  5
10
330
2
100
AcDbSymbolTableRecord
100
AcDbLayerTableRecord
  2
0
 70
    0
 62
    7
  6
CONTINUOUS
370
   -3
390
F
  0
LAYER
  5
4A
330
2
100
AcDbSymbolTableRecord
100
AcDbLayerTableRecord
  2
Text
 70
    0
 62
    7
  6
CONTINUOUS
370
   20
390
F
  0
LAYER
  5
4B
330
2
100
AcDbSymbolTableRecord
100
AcDbLayerTableRecord
  2
cotas
 70
    0
 62
    6
  6
CONTINUOUS
370
   -3
390
F
  0
LAYER
  5
4C
330
2
100
AcDbSymbolTableRecord
100
AcDbLayerTableRecord
  2
guias
 70
    0
 62
    4
  6
CONTINUOUS
290
0
370
    0
390
F
1001
LibreCad
1070
    1
  0
ENDTAB
  0
TABLE
  2
STYLE
  5
3
330
0
100
AcDbSymbolTable
 70
    3
  0
STYLE
  5
4D
330
2
100
AcDbSymbolTableRecord
100
AcDbTextStyleTableRecord
  2
romanc
 70
    0
 40
0
 41
1
 50
0
 71
    0
 42
1
  3
romanc
  4

  0
STYLE
  5
4E
330
2
100
AcDbSymbolTableRecord
100
AcDbTextStyleTableRecord
  2
Standard
 70
    0
 40
0
 41
1
 50
0
 71
    0
 42
1
  3
txt
  4

  0
ENDTAB
  0
TABLE
  2
VIEW
  5
6
330
0
100
AcDbSymbolTable
 70
    0
  0
ENDTAB
  0
TABLE
  2
UCS
  5
7
330
0
100
AcDbSymbolTable
 70
    0
  0
ENDTAB
  0
TABLE
  2
APPID
  5
9
330
0
100
AcDbSymbolTable
 70
    1
  0
APPID
  5
12
330
9
100
AcDbSymbolTableRecord
100
AcDbRegAppTableRecord
  2
ACAD
 70
    0
  0
APPID
  5
4F
330
9
100
AcDbSymbolTableRecord
100
AcDbRegAppTableRecord
  2
LibreCad
 70
    0
  0
ENDTAB
  0
TABLE
  2
DIMSTYLE
  5
A
330
0
100
AcDbSymbolTable
 70
    1
100
AcDbDimStyleTable
 71
    1
  0
DIMSTYLE
105
50
330
A
100
AcDbSymbolTableRecord
100
AcDbDimStyleTableRecord
  2
Standard
 70
    0
 40
1
 41
2.5
 42
0.625
 43
0.38
 44
1.25
 45
0
 46
0
 47
0
 48
0
 49
1
140
2.5
141
0.09
142
0
143
25.4
144
1
145
0
146
1
147
0.625
148
0
 71
    0
 72
    0
 73
    0
 74
    1
 75
    0
 76
    0
 77
    0
 78
    1
 79
    0
170
    0
171
    2
172
    0
173
    0
174
    0
175
    0
176
    0
177
    0
178
    0
179
    2
271
    4
272
    4
273
    2
274
    2
275
    0
276
    0
277
    2
278
   44
279
    0
280
    0
281
    0
282
    0
283
    1
284
    0
285
    0
286
    0
288
    0
289
    3
340
standard
341

371
   -2
372
   -2
  0
ENDTAB
  0
TABLE
  2
BLOCK_RECORD
  5
1
330
0
100
AcDbSymbolTable
 70
    2
  0
BLOCK_RECORD
  5
1F
330
1
100
AcDbSymbolTableRecord
100
AcDbBlockTableRecord
  2
*Model_Space
 70
    0
280
    1
281
    0
  0
BLOCK_RECORD
  5
1E
330
1
100
AcDbSymbolTableRecord
100
AcDbBlockTableRecord
  2
*Paper_Space
 70
    0
280
    1
281
    0
  0
BLOCK_RECORD
  5
51
330
1
100
AcDbSymbolTableRecord
100
AcDbBlockTableRecord
  2
*D1
 70
    0
280
    1
281
    0
  0
BLOCK_RECORD
  5
54
330
1
100
AcDbSymbolTableRecord
100
AcDbBlockTableRecord
  2
*D7
 70
    0
280
    1
281
    0
  0
BLOCK_RECORD
  5
57
330
1
100
AcDbSymbolTableRecord
100
AcDbBlockTableRecord
  2
*D3
 70
    0
280
    1
281
    0
  0
BLOCK_RECORD
  5
5A
330
1
100
AcDbSymbolTableRecord
100
AcDbBlockTableRecord
  2
*D2
 70
    0
280
    1
281
    0
  0
BLOCK_RECORD
  5
5D
330
1
100
AcDbSymbolTableRecord
100
AcDbBlockTableRecord
  2
*D4
 70
    0
280
    1
281
    0
  0
BLOCK_RECORD
  5
60
330
1
100
AcDbSymbolTableRecord
100
AcDbBlockTableRecord
  2
*D5
 70
    0
280
    1
281
    0
  0
BLOCK_RECORD
  5
63
330
1
100
AcDbSymbolTableRecord
100
AcDbBlockTableRecord
  2
*D6
 70
    0
280
    1
281
    0
  0
BLOCK_RECORD
  5
66
330
1
100
AcDbSymbolTableRecord
100
AcDbBlockTableRecord
  2
*D8
 70
    0
280
    1
281
    0
  0
BLOCK_RECORD
  5
69
330
1
100
AcDbSymbolTableRecord
100
AcDbBlockTableRecord
  2
cuadrado
 70
    0
280
    1
281
    0
  0
BLOCK_RECORD
  5
6C
330
1
100
AcDbSymbolTableRecord
100
AcDbBlockTableRecord
  2
button
 70
    0
280
    1
281
    0
  0
BLOCK_RECORD
  5
6F
330
1
100
AcDbSymbolTableRecord
100
AcDbBlockTableRecord
  2
button-0
 70
    0
280
    1
281
    0
  0
BLOCK_RECORD
  5
72
330
1
100
AcDbSymbolTableRecord
100
AcDbBlockTableRecord
  2
button-1
 70
    0
280
    1
281
    0
  0
BLOCK_RECORD
  5
75
330
1
100
AcDbSymbolTableRecord
100
AcDbBlockTableRecord
  2
button-2
 70
    0
280
    1
281
    0
  0
BLOCK_RECORD
  5
78
330
1
100
AcDbSymbolTableRecord
100
AcDbBlockTableRecord
  2
button-3
 70
    0
280
    1
281
    0
  0
BLOCK_RECORD
  5
7B
330
1
100
AcDbSymbolTableRecord
100
AcDbBlockTableRecord
  2
button-4
 70
    0
280
    1
281
    0
  0
BLOCK_RECORD
  5
7E
330
1
100
AcDbSymbolTableRecord
100
AcDbBlockTableRecord
  2
button-5
 70
    0
280
    1
281
    0
  0
BLOCK_RECORD
  5
81
330
1
100
AcDbSymbolTableRecord
100
AcDbBlockTableRecord
  2
button-6
 70
    0
280
    1
281
    0
  0
BLOCK_RECORD
  5
84
330
1
100
AcDbSymbolTableRecord
100
AcDbBlockTableRecord
  2
button-7
 70
    0
280
    1
281
    0
  0
BLOCK_RECORD
  5
87
330
1
100
AcDbSymbolTableRecord
100
AcDbBlockTableRecord
  2
button-8
 70
    0
280
    1
281
    0
  0
BLOCK_RECORD
  5
8A
330
1
100
AcDbSymbolTableRecord
100
AcDbBlockTableRecord
  2
button-9
 70
    0
280
    1
281
    0
  0
BLOCK_RECORD
  5
8D
330
1
100
AcDbSymbolTableRecord
100
AcDbBlockTableRecord
  2
button-10
 70
    0
280
    1
281
    0
  0
BLOCK_RECORD
  5
90
330
1
100
AcDbSymbolTableRecord
100
AcDbBlockTableRecord
  2
button-11
 70
    0
280
    1
281
    0
  0
BLOCK_RECORD
  5
93
330
1
100
AcDbSymbolTableRecord
100
AcDbBlockTableRecord
  2
button-12
 70
    0
280
    1
281
    0
  0
ENDTAB
  0
ENDSEC
  0
SECTION
  2
BLOCKS
  0
BLOCK
  5
20
330
1F
100
AcDbEntity
  8
0
100
AcDbBlockBegin
  2
*Model_Space
 70
    0
 10
0
 20
0
 30
0
  3
*Model_Space
  1

  0
ENDBLK
  5
21
330
1F
100
AcDbEntity
  8
0
100
AcDbBlockEnd
  0
BLOCK
  5
1C
330
1B
100
AcDbEntity
  8
0
100
AcDbBlockBegin
  2
*Paper_Space
 70
    0
 10
0
 20
0
 30
0
  3
*Paper_Space
  1

  0
ENDBLK
  5
1D
330
1F
100
AcDbEntity
  8
0
100
AcDbBlockEnd
  0
BLOCK
  5
52
330
51
100
AcDbEntity
  8
0
100
AcDbBlockBegin
  2
*D1
 70
    1
 10
0
 20
0
  3
*D1
  1

  0
LINE
  5
96
100
AcDbEntity
  8
cotas
  6
ByBlock
 62
    0
370
   -2
100
AcDbLine
 10
193.5610130476642
 20
68.51873637204034
 11
207.4389869523358
 21
76.48126362795949
  0
SOLID
  5
97
100
AcDbEntity
  8
cotas
  6
ByBlock
 62
    0
370
   -2
100
AcDbTrace
 10
197.8978798928741
 20
71.00702613951508
 30
0
 11
195.9366138411278
 21
69.40180702968479
 31
0
 12
195.5222790994106
 22
70.12395548187062
 32
0
 13
195.5222790994106
 23
70.12395548187062
 33
0
  0
SOLID
  5
98
100
AcDbEntity
  8
cotas
  6
ByBlock
 62
    0
370
   -2
100
AcDbTrace
 10
203.1021201071259
 20
73.99297386048475
 30
0
 11
205.0633861588722
 21
75.59819297031504
 31
0
 12
205.4777209005894
 22
74.87604451812921
 32
0
 13
205.4777209005894
 23
74.87604451812921
 33
0
  0
MTEXT
  5
99
100
AcDbEntity
  8
cotas
  6
CONTINUOUS
 62
    0
370
   -2
100
AcDbMText
 10
206.987752383445
 20
78.38406533574376
 30
0
 40
2.5
 41
9.861111111111267
 71
    5
 72
    1
  1
6,0000
  7
standard
210
0
220
0
230
1
 50
29.84517203933679
 73
    2
 44
1
  0
ENDBLK
  5
53
330
51
100
AcDbEntity
  8
0
100
AcDbBlockEnd
  0
BLOCK
  5
55
330
54
100
AcDbEntity
  8
0
100
AcDbBlockBegin
  2
*D7
 70
    1
 10
0
 20
0
  3
*D7
  1

  0
LINE
  5
9A
100
AcDbEntity
  8
cotas
  6
ByBlock
 62
    0
370
   -2
100
AcDbLine
 10
155.0000000000062
 20
-2.875000000000011
 11
155.0000000000062
 21
-18.87500000000001
  0
SOLID
  5
9B
100
AcDbEntity
  8
cotas
  6
ByBlock
 62
    0
370
   -2
100
AcDbTrace
 10
155.0000000000062
 20
-7.875000000000011
 30
0
 11
154.5837153422333
 21
-5.375000000000011
 31
0
 12
155.416284657779
 22
-5.375000000000011
 32
0
 13
155.416284657779
 23
-5.375000000000011
 33
0
  0
SOLID
  5
9C
100
AcDbEntity
  8
cotas
  6
ByBlock
 62
    0
370
   -2
100
AcDbTrace
 10
155.0000000000062
 20
-13.87500000000001
 30
0
 11
155.416284657779
 21
-16.37500000000001
 31
0
 12
154.5837153422333
 22
-16.37500000000001
 32
0
 13
154.5837153422333
 23
-16.37500000000001
 33
0
  0
MTEXT
  5
9D
100
AcDbEntity
  8
cotas
  6
CONTINUOUS
 62
    0
370
   -2
100
AcDbMText
 10
153.1250000000062
 20
-2.319444444444377
 30
0
 40
2.5
 41
9.861111111111267
 71
    5
 72
    1
  1
6,0000
  7
standard
210
0
220
0
230
1
 50
90
 73
    2
 44
1
  0
LINE
  5
9E
100
AcDbEntity
  8
cotas
  6
ByBlock
 62
    0
370
   -2
100
AcDbLine
 10
154.3750000000062
 20
-7.875000000000011
 11
153.7500000000062
 21
-7.875000000000011
  0
LINE
  5
9F
100
AcDbEntity
  8
cotas
  6
ByBlock
 62
    0
370
   -2
100
AcDbLine
 10
158.8750000000062
 20
-13.87500000000001
 11
153.7500000000062
 21
-13.87500000000001
  0
ENDBLK
  5
56
330
54
100
AcDbEntity
  8
0
100
AcDbBlockEnd
  0
BLOCK
  5
58
330
57
100
AcDbEntity
  8
0
100
AcDbBlockBegin
  2
*D3
 70
    1
 10
0
 20
0
  3
*D3
  1

  0
LINE
  5
A0
100
AcDbEntity
  8
cotas
  6
ByBlock
 62
    0
370
   -2
100
AcDbLine
 10
232.9682277046668
 20
113.7481542296348
 11
232.9682277046668
 21
-27.4424551857936
  0
SOLID
  5
A1
100
AcDbEntity
  8
cotas
  6
ByBlock
 62
    0
370
   -2
100
AcDbTrace
 10
232.9682277046668
 20
113.7481542296348
 30
0
 11
233.3845123624396
 21
111.2481542296348
 31
0
 12
232.5519430468939
 22
111.2481542296348
 32
0
 13
232.5519430468939
 23
111.2481542296348
 33
0
  0
SOLID
  5
A2
100
AcDbEntity
  8
cotas
  6
ByBlock
 62
    0
370
   -2
100
AcDbTrace
 10
232.9682277046668
 20
-27.4424551857936
 30
0
 11
232.5519430468939
 21
-24.9424551857936
 31
0
 12
233.3845123624396
 22
-24.9424551857936
 32
0
 13
233.3845123624396
 23
-24.9424551857936
 33
0
  0
MTEXT
  5
A3
100
AcDbEntity
  8
cotas
  6
CONTINUOUS
 62
    0
370
   -2
100
AcDbMText
 10
231.0932277046668
 20
43.1528495219206
 30
0
 40
2.5
 41
12.36111111111127
 71
    5
 72
    1
  1
141,1906
  7
standard
210
0
220
0
230
1
 50
90
 73
    2
 44
1
  0
LINE
  5
A4
100
AcDbEntity
  8
cotas
  6
ByBlock
 62
    0
370
   -2
100
AcDbLine
 10
225.1250000000062
 20
113.7481542296348
 11
234.2182277046668
 21
113.7481542296348
  0
LINE
  5
A5
100
AcDbEntity
  8
cotas
  6
ByBlock
 62
    0
370
   -2
100
AcDbLine
 10
225.1250000000062
 20
-27.4424551857936
 11
234.2182277046668
 21
-27.4424551857936
  0
ENDBLK
  5
59
330
57
100
AcDbEntity
  8
0
100
AcDbBlockEnd
  0
BLOCK
  5
5B
330
5A
100
AcDbEntity
  8
0
100
AcDbBlockBegin
  2
*D2
 70
    1
 10
0
 20
0
  3
*D2
  1

  0
LINE
  5
A6
100
AcDbEntity
  8
cotas
  6
ByBlock
 62
    0
370
   -2
100
AcDbLine
 10
-31.99317166352949
 20
119.6323331456397
 11
224.5000000000062
 21
119.6323331456397
  0
SOLID
  5
A7
100
AcDbEntity
  8
cotas
  6
ByBlock
 62
    0
370
   -2
100
AcDbTrace
 10
-31.99317166352949
 20
119.6323331456397
 30
0
 11
-29.49317166352949
 21
120.0486178034125
 31
0
 12
-29.49317166352949
 22
119.2160484878669
 32
0
 13
-29.49317166352949
 23
119.2160484878669
 33
0
  0
SOLID
  5
A8
100
AcDbEntity
  8
cotas
  6
ByBlock
 62
    0
370
   -2
100
AcDbTrace
 10
224.5000000000062
 20
119.6323331456397
 30
0
 11
222.0000000000062
 21
119.2160484878669
 31
0
 12
222.0000000000062
 22
120.0486178034125
 32
0
 13
222.0000000000062
 23
120.0486178034125
 33
0
  0
MTEXT
  5
A9
100
AcDbEntity
  8
cotas
  6
CONTINUOUS
 62
    0
370
   -2
100
AcDbMText
 10
96.25341416823835
 20
121.5073331456397
 30
0
 40
2.5
 41
14.02777777777824
 71
    5
 72
    1
  1
256,4932
  7
standard
210
0
220
0
230
1
 50
0
 73
    2
 44
1
  0
LINE
  5
AA
100
AcDbEntity
  8
cotas
  6
ByBlock
 62
    0
370
   -2
100
AcDbLine
 10
-31.99317166352949
 20
114.3731542296348
 11
-31.99317166352949
 21
120.8823331456397
  0
LINE
  5
AB
100
AcDbEntity
  8
cotas
  6
ByBlock
 62
    0
370
   -2
100
AcDbLine
 10
224.5000000000062
 20
114.3731542296348
 11
224.5000000000062
 21
120.8823331456397
  0
ENDBLK
  5
5C
330
5A
100
AcDbEntity
  8
0
100
AcDbBlockEnd
  0
BLOCK
  5
5E
330
5D
100
AcDbEntity
  8
0
100
AcDbBlockBegin
  2
*D4
 70
    1
 10
0
 20
0
  3
*D4
  1

  0
LINE
  5
AC
100
AcDbEntity
  8
cotas
  6
ByBlock
 62
    0
370
   -2
100
AcDbLine
 10
129.5000000000062
 20
3.794161145551521
 11
159.5000000000062
 21
3.794161145551521
  0
SOLID
  5
AD
100
AcDbEntity
  8
cotas
  6
ByBlock
 62
    0
370
   -2
100
AcDbTrace
 10
129.5000000000062
 20
3.794161145551521
 30
0
 11
132.0000000000062
 21
4.210445803324361
 31
0
 12
132.0000000000062
 22
3.37787648777868
 32
0
 13
132.0000000000062
 23
3.37787648777868
 33
0
  0
SOLID
  5
AE
100
AcDbEntity
  8
cotas
  6
ByBlock
 62
    0
370
   -2
100
AcDbTrace
 10
159.5000000000062
 20
3.794161145551521
 30
0
 11
157.0000000000062
 21
3.377876487778681
 31
0
 12
157.0000000000062
 22
4.210445803324362
 32
0
 13
157.0000000000062
 23
4.210445803324362
 33
0
  0
MTEXT
  5
AF
100
AcDbEntity
  8
cotas
  6
CONTINUOUS
 62
    0
370
   -2
100
AcDbMText
 10
144.5000000000062
 20
5.66916114555152
 30
0
 40
2.5
 41
11.80555555555571
 71
    5
 72
    1
  1
30,0000
  7
standard
210
0
220
0
230
1
 50
0
 73
    2
 44
1
  0
LINE
  5
B0
100
AcDbEntity
  8
cotas
  6
ByBlock
 62
    0
370
   -2
100
AcDbLine
 10
129.5000000000062
 20
-1.250000000000012
 11
129.5000000000062
 21
5.044161145551521
  0
LINE
  5
B1
100
AcDbEntity
  8
cotas
  6
ByBlock
 62
    0
370
   -2
100
AcDbLine
 10
159.5000000000062
 20
-1.250000000000012
 11
159.5000000000062
 21
5.044161145551521
  0
ENDBLK
  5
5F
330
5D
100
AcDbEntity
  8
0
100
AcDbBlockEnd
  0
BLOCK
  5
61
330
60
100
AcDbEntity
  8
0
100
AcDbBlockBegin
  2
*D5
 70
    1
 10
0
 20
0
  3
*D5
  1

  0
LINE
  5
B2
100
AcDbEntity
  8
cotas
  6
ByBlock
 62
    0
370
   -2
100
AcDbLine
 10
134.0000000000062
 20
-7.875000000000011
 11
155.0000000000062
 21
-7.875000000000011
  0
SOLID
  5
B3
100
AcDbEntity
  8
cotas
  6
ByBlock
 62
    0
370
   -2
100
AcDbTrace
 10
134.0000000000062
 20
-7.875000000000011
 30
0
 11
136.5000000000062
 21
-7.458715342227171
 31
0
 12
136.5000000000062
 22
-8.291284657772852
 32
0
 13
136.5000000000062
 23
-8.291284657772852
 33
0
  0
SOLID
  5
B4
100
AcDbEntity
  8
cotas
  6
ByBlock
 62
    0
370
   -2
100
AcDbTrace
 10
155.0000000000062
 20
-7.875000000000011
 30
0
 11
152.5000000000062
 21
-8.291284657772851
 31
0
 12
152.5000000000062
 22
-7.45871534222717
 32
0
 13
152.5000000000062
 23
-7.45871534222717
 33
0
  0
MTEXT
  5
B5
100
AcDbEntity
  8
cotas
  6
CONTINUOUS
 62
    0
370
   -2
100
AcDbMText
 10
144.5000000000062
 20
-6.000000000000011
 30
0
 40
2.5
 41
11.25
 71
    5
 72
    1
  1
21,0000
  7
standard
210
0
220
0
230
1
 50
0
 73
    2
 44
1
  0
LINE
  5
B6
100
AcDbEntity
  8
cotas
  6
ByBlock
 62
    0
370
   -2
100
AcDbLine
 10
134.0000000000062
 20
-7.250000000000007
 11
134.0000000000062
 21
-6.625000000000011
  0
LINE
  5
B7
100
AcDbEntity
  8
cotas
  6
ByBlock
 62
    0
370
   -2
100
AcDbLine
 10
155.0000000000062
 20
-7.250000000000011
 11
155.0000000000062
 21
-6.625000000000011
  0
ENDBLK
  5
62
330
60
100
AcDbEntity
  8
0
100
AcDbBlockEnd
  0
BLOCK
  5
64
330
63
100
AcDbEntity
  8
0
100
AcDbBlockBegin
  2
*D6
 70
    1
 10
0
 20
0
  3
*D6
  1

  0
LINE
  5
B8
100
AcDbEntity
  8
cotas
  6
ByBlock
 62
    0
370
   -2
100
AcDbLine
 10
124.6381936313675
 20
-1.875000000000014
 11
124.6381936313675
 21
-13.87500000000001
  0
SOLID
  5
B9
100
AcDbEntity
  8
cotas
  6
ByBlock
 62
    0
370
   -2
100
AcDbTrace
 10
124.6381936313675
 20
-1.875000000000014
 30
0
 11
125.0544782891403
 21
-4.375000000000014
 31
0
 12
124.2219089735947
 22
-4.375000000000014
 32
0
 13
124.2219089735947
 23
-4.375000000000014
 33
0
  0
SOLID
  5
BA
100
AcDbEntity
  8
cotas
  6
ByBlock
 62
    0
370
   -2
100
AcDbTrace
 10
124.6381936313675
 20
-13.87500000000001
 30
0
 11
124.2219089735947
 21
-11.37500000000001
 31
0
 12
125.0544782891403
 22
-11.37500000000001
 32
0
 13
125.0544782891403
 23
-11.37500000000001
 33
0
  0
MTEXT
  5
BB
100
AcDbEntity
  8
cotas
  6
CONTINUOUS
 62
    0
370
   -2
100
AcDbMText
 10
122.7631936313675
 20
-7.875000000000012
 30
0
 40
2.5
 41
11.25
 71
    5
 72
    1
  1
12,0000
  7
standard
210
0
220
0
230
1
 50
90
 73
    2
 44
1
  0
LINE
  5
BC
100
AcDbEntity
  8
cotas
  6
ByBlock
 62
    0
370
   -2
100
AcDbLine
 10
128.8750000000062
 20
-1.875000000000012
 11
123.3881936313675
 21
-1.875000000000015
  0
LINE
  5
BD
100
AcDbEntity
  8
cotas
  6
ByBlock
 62
    0
370
   -2
100
AcDbLine
 10
128.8750000000062
 20
-13.87500000000001
 11
123.3881936313675
 21
-13.87500000000001
  0
ENDBLK
  5
65
330
63
100
AcDbEntity
  8
0
100
AcDbBlockEnd
  0
BLOCK
  5
67
330
66
100
AcDbEntity
  8
0
100
AcDbBlockBegin
  2
*D8
 70
    1
 10
0
 20
0
  3
*D8
  1

  0
LINE
  5
BE
100
AcDbEntity
  8
cotas
  6
ByBlock
 62
    0
370
   -2
100
AcDbLine
 10
-10.00000000000001
 20
53.74999999999995
 11
-23.00000000000001
 21
53.74999999999995
  0
SOLID
  5
BF
100
AcDbEntity
  8
cotas
  6
ByBlock
 62
    0
370
   -2
100
AcDbTrace
 10
-15.00000000000001
 20
53.74999999999995
 30
0
 11
-12.50000000000001
 21
54.16628465777279
 31
0
 12
-12.50000000000001
 22
53.33371534222711
 32
0
 13
-12.50000000000001
 23
53.33371534222711
 33
0
  0
SOLID
  5
C0
100
AcDbEntity
  8
cotas
  6
ByBlock
 62
    0
370
   -2
100
AcDbTrace
 10
-18.00000000000001
 20
53.74999999999995
 30
0
 11
-20.50000000000001
 21
53.33371534222711
 31
0
 12
-20.50000000000001
 22
54.16628465777279
 32
0
 13
-20.50000000000001
 23
54.16628465777279
 33
0
  0
MTEXT
  5
C1
100
AcDbEntity
  8
cotas
  6
CONTINUOUS
 62
    0
370
   -2
100
AcDbMText
 10
-9.444444444444377
 20
55.62499999999995
 30
0
 40
2.5
 41
9.861111111111267
 71
    5
 72
    1
  1
3,0000
  7
standard
210
0
220
0
230
1
 50
0
 73
    2
 44
1
  0
LINE
  5
C2
100
AcDbEntity
  8
cotas
  6
ByBlock
 62
    0
370
   -2
100
AcDbLine
 10
-15.00000000000001
 20
53.12499999999995
 11
-15.00000000000001
 21
52.49999999999995
  0
LINE
  5
C3
100
AcDbEntity
  8
cotas
  6
ByBlock
 62
    0
370
   -2
100
AcDbLine
 10
-18.00000000000001
 20
59.12499999999994
 11
-18.00000000000001
 21
52.49999999999995
  0
ENDBLK
  5
68
330
66
100
AcDbEntity
  8
0
100
AcDbBlockEnd
  0
BLOCK
  5
6A
330
69
100
AcDbEntity
  8
0
100
AcDbBlockBegin
  2
cuadrado
 70
    0
 10
0
 20
0
  3
cuadrado
  1

  0
ENDBLK
  5
6B
330
69
100
AcDbEntity
  8
0
100
AcDbBlockEnd
  0
BLOCK
  5
6D
330
6C
100
AcDbEntity
  8
0
100
AcDbBlockBegin
  2
button
 70
    0
 10
0
 20
0
  3
button
  1

  0
CIRCLE
  5
C4
100
AcDbEntity
  8
0
  6
ByLayer
 62
  256
370
   -1
100
AcDbCircle
 10
4.5
 20
-5.999999999999996
 40
1.5
  0
CIRCLE
  5
C5
100
AcDbEntity
  8
0
  6
ByLayer
 62
  256
370
   -1
100
AcDbCircle
 10
25.5
 20
-5.999999999999998
 40
1.5
  0
LWPOLYLINE
  5
C6
100
AcDbEntity
  8
0
  6
ByLayer
 62
  256
370
   -1
100
AcDbPolyline
 90
    4
 70
    1
 43
0
 10
0
 20
0
 10
30
 20
0
 10
30
 20
-12
 10
0
 20
-12
  0
LWPOLYLINE
  5
C7
100
AcDbEntity
  8
0
  6
ByLayer
 62
  256
370
   -1
100
AcDbPolyline
 90
    4
 70
    1
 43
0
 10
9
 20
0
 10
21
 20
0
 10
21
 20
-12
 10
9
 20
-12
  0
ENDBLK
  5
6E
330
6C
100
AcDbEntity
  8
0
100
AcDbBlockEnd
  0
BLOCK
  5
70
330
6F
100
AcDbEntity
  8
0
100
AcDbBlockBegin
  2
button-0
 70
    0
 10
0
 20
0
  3
button-0
  1

  0
CIRCLE
  5
C8
100
AcDbEntity
  8
0
  6
ByLayer
 62
  256
370
   -1
100
AcDbCircle
 10
-4.5
 20
-5.999999999999996
 40
1.5
  0
CIRCLE
  5
C9
100
AcDbEntity
  8
0
  6
ByLayer
 62
  256
370
   -1
100
AcDbCircle
 10
16.5
 20
-5.999999999999998
 40
1.5
  0
LWPOLYLINE
  5
CA
100
AcDbEntity
  8
0
  6
ByLayer
 62
  256
370
   -1
100
AcDbPolyline
 90
    4
 70
    1
 43
0
 10
-9
 20
0
 10
21
 20
0
 10
21
 20
-12
 10
-9
 20
-12
  0
LWPOLYLINE
  5
CB
100
AcDbEntity
  8
0
  6
ByLayer
 62
  256
370
   -1
100
AcDbPolyline
 90
    4
 70
    1
 43
0
 10
0
 20
0
 10
12
 20
0
 10
12
 20
-12
 10
0
 20
-12
  0
ENDBLK
  5
71
330
6F
100
AcDbEntity
  8
0
100
AcDbBlockEnd
  0
BLOCK
  5
73
330
72
100
AcDbEntity
  8
0
100
AcDbBlockBegin
  2
button-1
 70
    0
 10
0
 20
0
  3
button-1
  1

  0
CIRCLE
  5
CC
100
AcDbEntity
  8
0
  6
ByLayer
 62
  256
370
   -1
100
AcDbCircle
 10
4.5
 20
-5.999999999999996
 40
1.5
  0
CIRCLE
  5
CD
100
AcDbEntity
  8
0
  6
ByLayer
 62
  256
370
   -1
100
AcDbCircle
 10
25.5
 20
-5.999999999999998
 40
1.5
  0
LWPOLYLINE
  5
CE
100
AcDbEntity
  8
0
  6
ByLayer
 62
  256
370
   -1
100
AcDbPolyline
 90
    4
 70
    1
 43
0
 10
0
 20
0
 10
30
 20
0
 10
30
 20
-12
 10
0
 20
-12
  0
LWPOLYLINE
  5
CF
100
AcDbEntity
  8
0
  6
ByLayer
 62
  256
370
   -1
100
AcDbPolyline
 90
    4
 70
    1
 43
0
 10
9
 20
0
 10
21
 20
0
 10
21
 20
-12
 10
9
 20
-12
  0
ENDBLK
  5
74
330
72
100
AcDbEntity
  8
0
100
AcDbBlockEnd
  0
BLOCK
  5
76
330
75
100
AcDbEntity
  8
0
100
AcDbBlockBegin
  2
button-2
 70
    0
 10
0
 20
0
  3
button-2
  1

  0
CIRCLE
  5
D0
100
AcDbEntity
  8
0
  6
ByLayer
 62
  256
370
   -1
100
AcDbCircle
 10
4.499999999999986
 20
-5.999999999999996
 40
1.5
  0
CIRCLE
  5
D1
100
AcDbEntity
  8
0
  6
ByLayer
 62
  256
370
   -1
100
AcDbCircle
 10
25.49999999999999
 20
-5.999999999999998
 40
1.5
  0
LWPOLYLINE
  5
D2
100
AcDbEntity
  8
0
  6
ByLayer
 62
  256
370
   -1
100
AcDbPolyline
 90
    4
 70
    1
 43
0
 10
-1.4210854715202e-014
 20
0
 10
29.99999999999999
 20
0
 10
29.99999999999999
 20
-12
 10
-1.4210854715202e-014
 20
-12
  0
LWPOLYLINE
  5
D3
100
AcDbEntity
  8
0
  6
ByLayer
 62
  256
370
   -1
100
AcDbPolyline
 90
    4
 70
    1
 43
0
 10
8.999999999999986
 20
0
 10
20.99999999999999
 20
0
 10
20.99999999999999
 20
-12
 10
8.999999999999986
 20
-12
  0
ENDBLK
  5
77
330
75
100
AcDbEntity
  8
0
100
AcDbBlockEnd
  0
BLOCK
  5
79
330
78
100
AcDbEntity
  8
0
100
AcDbBlockBegin
  2
button-3
 70
    0
 10
0
 20
0
  3
button-3
  1

  0
CIRCLE
  5
D4
100
AcDbEntity
  8
0
  6
ByLayer
 62
  256
370
   -1
100
AcDbCircle
 10
4.499999999999986
 20
-5.999999999999996
 40
1.5
  0
CIRCLE
  5
D5
100
AcDbEntity
  8
0
  6
ByLayer
 62
  256
370
   -1
100
AcDbCircle
 10
25.49999999999999
 20
-5.999999999999998
 40
1.5
  0
LWPOLYLINE
  5
D6
100
AcDbEntity
  8
0
  6
ByLayer
 62
  256
370
   -1
100
AcDbPolyline
 90
    4
 70
    1
 43
0
 10
-1.4210854715202e-014
 20
0
 10
29.99999999999999
 20
0
 10
29.99999999999999
 20
-12
 10
-1.4210854715202e-014
 20
-12
  0
LWPOLYLINE
  5
D7
100
AcDbEntity
  8
0
  6
ByLayer
 62
  256
370
   -1
100
AcDbPolyline
 90
    4
 70
    1
 43
0
 10
8.999999999999986
 20
0
 10
20.99999999999999
 20
0
 10
20.99999999999999
 20
-12
 10
8.999999999999986
 20
-12
  0
ENDBLK
  5
7A
330
78
100
AcDbEntity
  8
0
100
AcDbBlockEnd
  0
BLOCK
  5
7C
330
7B
100
AcDbEntity
  8
0
100
AcDbBlockBegin
  2
button-4
 70
    0
 10
0
 20
0
  3
button-4
  1

  0
CIRCLE
  5
D8
100
AcDbEntity
  8
0
  6
ByLayer
 62
  256
370
   -1
100
AcDbCircle
 10
4.499999999999986
 20
-5.999999999999996
 40
1.5
  0
CIRCLE
  5
D9
100
AcDbEntity
  8
0
  6
ByLayer
 62
  256
370
   -1
100
AcDbCircle
 10
25.49999999999999
 20
-5.999999999999998
 40
1.5
  0
LWPOLYLINE
  5
DA
100
AcDbEntity
  8
0
  6
ByLayer
 62
  256
370
   -1
100
AcDbPolyline
 90
    4
 70
    1
 43
0
 10
-1.4210854715202e-014
 20
0
 10
29.99999999999999
 20
0
 10
29.99999999999999
 20
-12
 10
-1.4210854715202e-014
 20
-12
  0
LWPOLYLINE
  5
DB
100
AcDbEntity
  8
0
  6
ByLayer
 62
  256
370
   -1
100
AcDbPolyline
 90
    4
 70
    1
 43
0
 10
8.999999999999986
 20
0
 10
20.99999999999999
 20
0
 10
20.99999999999999
 20
-12
 10
8.999999999999986
 20
-12
  0
ENDBLK
  5
7D
330
7B
100
AcDbEntity
  8
0
100
AcDbBlockEnd
  0
BLOCK
  5
7F
330
7E
100
AcDbEntity
  8
0
100
AcDbBlockBegin
  2
button-5
 70
    0
 10
0
 20
0
  3
button-5
  1

  0
CIRCLE
  5
DC
100
AcDbEntity
  8
0
  6
ByLayer
 62
  256
370
   -1
100
AcDbCircle
 10
4.499999999999986
 20
-5.999999999999996
 40
1.5
  0
CIRCLE
  5
DD
100
AcDbEntity
  8
0
  6
ByLayer
 62
  256
370
   -1
100
AcDbCircle
 10
25.49999999999999
 20
-5.999999999999998
 40
1.5
  0
LWPOLYLINE
  5
DE
100
AcDbEntity
  8
0
  6
ByLayer
 62
  256
370
   -1
100
AcDbPolyline
 90
    4
 70
    1
 43
0
 10
-1.4210854715202e-014
 20
0
 10
29.99999999999999
 20
0
 10
29.99999999999999
 20
-12
 10
-1.4210854715202e-014
 20
-12
  0
LWPOLYLINE
  5
DF
100
AcDbEntity
  8
0
  6
ByLayer
 62
  256
370
   -1
100
AcDbPolyline
 90
    4
 70
    1
 43
0
 10
8.999999999999986
 20
0
 10
20.99999999999999
 20
0
 10
20.99999999999999
 20
-12
 10
8.999999999999986
 20
-12
  0
ENDBLK
  5
80
330
7E
100
AcDbEntity
  8
0
100
AcDbBlockEnd
  0
BLOCK
  5
82
330
81
100
AcDbEntity
  8
0
100
AcDbBlockBegin
  2
button-6
 70
    0
 10
0
 20
0
  3
button-6
  1

  0
CIRCLE
  5
E0
100
AcDbEntity
  8
0
  6
ByLayer
 62
  256
370
   -1
100
AcDbCircle
 10
4.499999999999986
 20
-5.999999999999996
 40
1.5
  0
CIRCLE
  5
E1
100
AcDbEntity
  8
0
  6
ByLayer
 62
  256
370
   -1
100
AcDbCircle
 10
25.49999999999999
 20
-5.999999999999998
 40
1.5
  0
LWPOLYLINE
  5
E2
100
AcDbEntity
  8
0
  6
ByLayer
 62
  256
370
   -1
100
AcDbPolyline
 90
    4
 70
    1
 43
0
 10
-1.4210854715202e-014
 20
0
 10
29.99999999999999
 20
0
 10
29.99999999999999
 20
-12
 10
-1.4210854715202e-014
 20
-12
  0
LWPOLYLINE
  5
E3
100
AcDbEntity
  8
0
  6
ByLayer
 62
  256
370
   -1
100
AcDbPolyline
 90
    4
 70
    1
 43
0
 10
8.999999999999986
 20
0
 10
20.99999999999999
 20
0
 10
20.99999999999999
 20
-12
 10
8.999999999999986
 20
-12
  0
ENDBLK
  5
83
330
81
100
AcDbEntity
  8
0
100
AcDbBlockEnd
  0
BLOCK
  5
85
330
84
100
AcDbEntity
  8
0
100
AcDbBlockBegin
  2
button-7
 70
    0
 10
0
 20
0
  3
button-7
  1

  0
CIRCLE
  5
E4
100
AcDbEntity
  8
0
  6
ByLayer
 62
  256
370
   -1
100
AcDbCircle
 10
4.499999999999986
 20
-5.999999999999996
 40
1.5
  0
CIRCLE
  5
E5
100
AcDbEntity
  8
0
  6
ByLayer
 62
  256
370
   -1
100
AcDbCircle
 10
25.49999999999999
 20
-5.999999999999998
 40
1.5
  0
LWPOLYLINE
  5
E6
100
AcDbEntity
  8
0
  6
ByLayer
 62
  256
370
   -1
100
AcDbPolyline
 90
    4
 70
    1
 43
0
 10
-1.4210854715202e-014
 20
0
 10
29.99999999999999
 20
0
 10
29.99999999999999
 20
-12
 10
-1.4210854715202e-014
 20
-12
  0
LWPOLYLINE
  5
E7
100
AcDbEntity
  8
0
  6
ByLayer
 62
  256
370
   -1
100
AcDbPolyline
 90
    4
 70
    1
 43
0
 10
8.999999999999986
 20
0
 10
20.99999999999999
 20
0
 10
20.99999999999999
 20
-12
 10
8.999999999999986
 20
-12
  0
ENDBLK
  5
86
330
84
100
AcDbEntity
  8
0
100
AcDbBlockEnd
  0
BLOCK
  5
88
330
87
100
AcDbEntity
  8
0
100
AcDbBlockBegin
  2
button-8
 70
    0
 10
0
 20
0
  3
button-8
  1

  0
CIRCLE
  5
E8
100
AcDbEntity
  8
0
  6
ByLayer
 62
  256
370
   -1
100
AcDbCircle
 10
4.499999999999986
 20
-5.999999999999996
 40
1.5
  0
CIRCLE
  5
E9
100
AcDbEntity
  8
0
  6
ByLayer
 62
  256
370
   -1
100
AcDbCircle
 10
25.49999999999999
 20
-5.999999999999998
 40
1.5
  0
LWPOLYLINE
  5
EA
100
AcDbEntity
  8
0
  6
ByLayer
 62
  256
370
   -1
100
AcDbPolyline
 90
    4
 70
    1
 43
0
 10
-1.4210854715202e-014
 20
0
 10
29.99999999999999
 20
0
 10
29.99999999999999
 20
-12
 10
-1.4210854715202e-014
 20
-12
  0
LWPOLYLINE
  5
EB
100
AcDbEntity
  8
0
  6
ByLayer
 62
  256
370
   -1
100
AcDbPolyline
 90
    4
 70
    1
 43
0
 10
8.999999999999986
 20
0
 10
20.99999999999999
 20
0
 10
20.99999999999999
 20
-12
 10
8.999999999999986
 20
-12
  0
ENDBLK
  5
89
330
87
100
AcDbEntity
  8
0
100
AcDbBlockEnd
  0
BLOCK
  5
8B
330
8A
100
AcDbEntity
  8
0
100
AcDbBlockBegin
  2
button-9
 70
    0
 10
0
 20
0
  3
button-9
  1

  0
CIRCLE
  5
EC
100
AcDbEntity
  8
0
  6
ByLayer
 62
  256
370
   -1
100
AcDbCircle
 10
4.499999999999986
 20
-5.999999999999996
 40
1.5
  0
CIRCLE
  5
ED
100
AcDbEntity
  8
0
  6
ByLayer
 62
  256
370
   -1
100
AcDbCircle
 10
25.49999999999999
 20
-5.999999999999998
 40
1.5
  0
LWPOLYLINE
  5
EE
100
AcDbEntity
  8
0
  6
ByLayer
 62
  256
370
   -1
100
AcDbPolyline
 90
    4
 70
    1
 43
0
 10
-1.4210854715202e-014
 20
0
 10
29.99999999999999
 20
0
 10
29.99999999999999
 20
-12
 10
-1.4210854715202e-014
 20
-12
  0
LWPOLYLINE
  5
EF
100
AcDbEntity
  8
0
  6
ByLayer
 62
  256
370
   -1
100
AcDbPolyline
 90
    4
 70
    1
 43
0
 10
8.999999999999986
 20
0
 10
20.99999999999999
 20
0
 10
20.99999999999999
 20
-12
 10
8.999999999999986
 20
-12
  0
ENDBLK
  5
8C
330
8A
100
AcDbEntity
  8
0
100
AcDbBlockEnd
  0
BLOCK
  5
8E
330
8D
100
AcDbEntity
  8
0
100
AcDbBlockBegin
  2
button-10
 70
    0
 10
0
 20
0
  3
button-10
  1

  0
CIRCLE
  5
F0
100
AcDbEntity
  8
0
  6
ByLayer
 62
  256
370
   -1
100
AcDbCircle
 10
4.499999999999986
 20
-5.999999999999996
 40
1.5
  0
CIRCLE
  5
F1
100
AcDbEntity
  8
0
  6
ByLayer
 62
  256
370
   -1
100
AcDbCircle
 10
25.49999999999999
 20
-5.999999999999998
 40
1.5
  0
LWPOLYLINE
  5
F2
100
AcDbEntity
  8
0
  6
ByLayer
 62
  256
370
   -1
100
AcDbPolyline
 90
    4
 70
    1
 43
0
 10
-1.4210854715202e-014
 20
0
 10
29.99999999999999
 20
0
 10
29.99999999999999
 20
-12
 10
-1.4210854715202e-014
 20
-12
  0
LWPOLYLINE
  5
F3
100
AcDbEntity
  8
0
  6
ByLayer
 62
  256
370
   -1
100
AcDbPolyline
 90
    4
 70
    1
 43
0
 10
8.999999999999986
 20
0
 10
20.99999999999999
 20
0
 10
20.99999999999999
 20
-12
 10
8.999999999999986
 20
-12
  0
ENDBLK
  5
8F
330
8D
100
AcDbEntity
  8
0
100
AcDbBlockEnd
  0
BLOCK
  5
91
330
90
100
AcDbEntity
  8
0
100
AcDbBlockBegin
  2
button-11
 70
    0
 10
0
 20
0
  3
button-11
  1

  0
CIRCLE
  5
F4
100
AcDbEntity
  8
0
  6
ByLayer
 62
  256
370
   -1
100
AcDbCircle
 10
4.499999999999986
 20
-5.999999999999996
 40
1.5
  0
CIRCLE
  5
F5
100
AcDbEntity
  8
0
  6
ByLayer
 62
  256
370
   -1
100
AcDbCircle
 10
25.49999999999999
 20
-5.999999999999998
 40
1.5
  0
LWPOLYLINE
  5
F6
100
AcDbEntity
  8
0
  6
ByLayer
 62
  256
370
   -1
100
AcDbPolyline
 90
    4
 70
    1
 43
0
 10
-1.4210854715202e-014
 20
0
 10
29.99999999999999
 20
0
 10
29.99999999999999
 20
-12
 10
-1.4210854715202e-014
 20
-12
  0
LWPOLYLINE
  5
F7
100
AcDbEntity
  8
0
  6
ByLayer
 62
  256
370
   -1
100
AcDbPolyline
 90
    4
 70
    1
 43
0
 10
8.999999999999986
 20
0
 10
20.99999999999999
 20
0
 10
20.99999999999999
 20
-12
 10
8.999999999999986
 20
-12
  0
ENDBLK
  5
92
330
90
100
AcDbEntity
  8
0
100
AcDbBlockEnd
  0
BLOCK
  5
94
330
93
100
AcDbEntity
  8
0
100
AcDbBlockBegin
  2
button-12
 70
    0
 10
0
 20
0
  3
button-12
  1

  0
CIRCLE
  5
F8
100
AcDbEntity
  8
0
  6
ByLayer
 62
  256
370
   -1
100
AcDbCircle
 10
4.499999999999986
 20
-5.999999999999996
 40
1.5
  0
CIRCLE
  5
F9
100
AcDbEntity
  8
0
  6
ByLayer
 62
  256
370
   -1
100
AcDbCircle
 10
25.49999999999999
 20
-5.999999999999998
 40
1.5
  0
LWPOLYLINE
  5
FA
100
AcDbEntity
  8
0
  6
ByLayer
 62
  256
370
   -1
100
AcDbPolyline
 90
    4
 70
    1
 43
0
 10
-1.4210854715202e-014
 20
0
 10
29.99999999999999
 20
0
 10
29.99999999999999
 20
-12
 10
-1.4210854715202e-014
 20
-12
  0
LWPOLYLINE
  5
FB
100
AcDbEntity
  8
0
  6
ByLayer
 62
  256
370
   -1
100
AcDbPolyline
 90
    4
 70
    1
 43
0
 10
8.999999999999986
 20
0
 10
20.99999999999999
 20
0
 10
20.99999999999999
 20
-12
 10
8.999999999999986
 20
-12
  0
ENDBLK
  5
95
330
93
100
AcDbEntity
  8
0
100
AcDbBlockEnd
  0
ENDSEC
  0
SECTION
  2
ENTITIES
  0
CIRCLE
  5
FC
100
AcDbEntity
  8
0
  6
ByLayer
 62
  256
370
   -1
100
AcDbCircle
 10
201
 20
34.99999999999992
 40
10.5
  0
CIRCLE
  5
FD
100
AcDbEntity
  8
0
  6
ByLayer
 62
  256
370
   -1
100
AcDbCircle
 10
200.5
 20
72.49999999999991
 40
10.5
  0
CIRCLE
  5
FE
100
AcDbEntity
  8
0
  6
ByLayer
 62
  256
370
   -1
100
AcDbCircle
 10
83.0000000000062
 20
-8.500000000000011
 40
10.5
  0
CIRCLE
  5
FF
100
AcDbEntity
  8
0
  6
ByLayer
 62
  256
370
   -1
100
AcDbCircle
 10
110.5000000000062
 20
-8.500000000000011
 40
10.5
  0
CIRCLE
  5
100
100
AcDbEntity
  8
0
  6
ByLayer
 62
  256
370
   -1
100
AcDbCircle
 10
190.0000000000062
 20
-8.500000000000011
 40
13.965
  0
MTEXT
  5
101
100
AcDbEntity
  8
Text
  6
ByLayer
 62
  256
370
   -1
100
AcDbMText
 10
162.8348058238028
 20
-1.54565548954725
 30
0
 40
3
 41
11.57143
 71
    1
 72
    1
  1
TEST
  7
romanc
210
0
220
0
230
1
 50
0
 73
    2
 44
1
  0
MTEXT
  5
102
100
AcDbEntity
  8
Text
  6
ByLayer
 62
  256
370
   -1
100
AcDbMText
 10
167.9354689393087
 20
7.187298026394714
 30
0
 40
3
 41
12.28572333333334
 71
    1
 72
    1
  1
STBY
  7
romanc
210
0
220
0
230
1
 50
0
 73
    2
 44
1
  0
MTEXT
  5
103
100
AcDbEntity
  8
Text
  6
ByLayer
 62
  256
370
   -1
100
AcDbMText
 10
179.6824506598678
 20
13.21535443562899
 30
0
 40
3
 41
8.857140000000001
 71
    1
 72
    1
  1
OFF
  7
romanc
210
0
220
0
230
1
 50
0
 73
    2
 44
1
  0
MTEXT
  5
104
100
AcDbEntity
  8
Text
  6
ByLayer
 62
  256
370
   -1
100
AcDbMText
 10
191.7385634783364
 20
13.21535443562899
 30
0
 40
3
 41
13.00001333333333
 71
    1
 72
    1
  1
XPDR
  7
romanc
210
0
220
0
230
1
 50
0
 73
    2
 44
1
  0
MTEXT
  5
105
100
AcDbEntity
  8
Text
  6
ByLayer
 62
  256
370
   -1
100
AcDbMText
 10
198.694013181299
 20
7.187298026394714
 30
0
 40
3
 41
21.82143
 71
    1
 72
    1
  1
TA ONLY
  7
romanc
210
0
220
0
230
1
 50
0
 73
    2
 44
1
  0
MTEXT
  5
106
100
AcDbEntity
  8
Text
  6
ByLayer
 62
  256
370
   -1
100
AcDbMText
 10
205.2630490118748
 20
-1.54565548954725
 30
0
 40
3
 41
15.14286333333333
 71
    1
 72
    1
  1
TA/RA
  7
romanc
210
0
220
0
230
1
 50
0
 73
    2
 44
1
  0
MTEXT
  5
107
100
AcDbEntity
  8
Text
  6
ByLayer
 62
  256
370
   -1
100
AcDbMText
 10
78.18843199076956
 20
108.6789016087917
 30
0
 40
4
 41
16.19048444444444
 71
    1
 72
    1
  1
NAV1
  7
romanc
210
0
220
0
230
1
 50
0
 73
    2
 44
1
  0
MTEXT
  5
108
100
AcDbEntity
  8
Text
  6
ByLayer
 62
  256
370
   -1
100
AcDbMText
 10
26.26406788879134
 20
-19.01880778153856
 30
0
 40
3
 41
27.53573333333333
 71
    1
 72
    1
  1
XPDR Code
  7
romanc
210
0
220
0
230
1
 50
0
 73
    2
 44
1
  0
CIRCLE
  5
109
100
AcDbEntity
  8
0
  6
ByLayer
 62
  256
370
   -1
100
AcDbCircle
 10
200.5
 20
72.49999999999991
 40
3
  0
CIRCLE
  5
10A
100
AcDbEntity
  8
0
  6
ByLayer
 62
  256
370
   -1
100
AcDbCircle
 10
201
 20
34.99999999999992
 40
3
  0
CIRCLE
  5
10B
100
AcDbEntity
  8
0
  6
ByLayer
 62
  256
370
   -1
100
AcDbCircle
 10
190.0000000000062
 20
-8.500000000000011
 40
3
  0
CIRCLE
  5
10C
100
AcDbEntity
  8
0
  6
ByLayer
 62
  256
370
   -1
100
AcDbCircle
 10
110.5000000000062
 20
-8.500000000000011
 40
3
  0
CIRCLE
  5
10D
100
AcDbEntity
  8
0
  6
ByLayer
 62
  256
370
   -1
100
AcDbCircle
 10
83.0000000000062
 20
-8.500000000000011
 40
3
  0
DIMENSION
  5
10E
100
AcDbEntity
  8
cotas
  6
ByLayer
 62
  256
370
   -1
100
AcDbDimension
  2
*D1
 10
197.8978798928741
 20
71.00702613951508
 30
0
 11
199.566891337197
 21
74.12632506695361
 31
0
 70
   35
 71
    5
  3
Standard
 53
0
210
0
220
0
230
1
100
AcDbDiametricDimension
 15
203.1021201071259
 25
73.99297386048475
 35
0
 40
0
  0
INSERT
  5
10F
100
AcDbEntity
  8
0
  6
ByLayer
 62
  256
370
   -1
100
AcDbBlockReference
  2
button-0
 10
77.00000000000001
 20
21.74999999999992
 30
0
 41
1
 42
1
 43
0
 50
0
 70
    1
 71
    1
 44
0
 45
0
  0
INSERT
  5
110
100
AcDbEntity
  8
0
  6
ByLayer
 62
  256
370
   -1
100
AcDbBlockReference
  2
button-1
 10
68
 20
40.99999999999993
 30
0
 41
1
 42
1
 43
0
 50
0
 70
    1
 71
    1
 44
0
 45
0
  0
INSERT
  5
111
100
AcDbEntity
  8
0
  6
ByLayer
 62
  256
370
   -1
100
AcDbBlockReference
  2
button-2
 10
68.00000000000001
 20
59.74999999999994
 30
0
 41
1
 42
1
 43
0
 50
0
 70
    1
 71
    1
 44
0
 45
0
  0
INSERT
  5
112
100
AcDbEntity
  8
0
  6
ByLayer
 62
  256
370
   -1
100
AcDbBlockReference
  2
button-3
 10
68.00000000000003
 20
78.49999999999994
 30
0
 41
1
 42
1
 43
0
 50
0
 70
    1
 71
    1
 44
0
 45
0
  0
INSERT
  5
113
100
AcDbEntity
  8
0
  6
ByLayer
 62
  256
370
   -1
100
AcDbBlockReference
  2
button-4
 10
68.00000000000003
 20
97.74999999999993
 30
0
 41
1
 42
1
 43
0
 50
0
 70
    1
 71
    1
 44
0
 45
0
  0
INSERT
  5
114
100
AcDbEntity
  8
0
  6
ByLayer
 62
  256
370
   -1
100
AcDbBlockReference
  2
button-7
 10
25
 20
59.74999999999994
 30
0
 41
1
 42
1
 43
0
 50
0
 70
    1
 71
    1
 44
0
 45
0
  0
INSERT
  5
115
100
AcDbEntity
  8
0
  6
ByLayer
 62
  256
370
   -1
100
AcDbBlockReference
  2
button-8
 10
-18
 20
59.74999999999994
 30
0
 41
1
 42
1
 43
0
 50
0
 70
    1
 71
    1
 44
0
 45
0
  0
LWPOLYLINE
  5
116
100
AcDbEntity
  8
0
  6
ByLayer
 62
  256
370
   -1
100
AcDbPolyline
 90
    4
 70
    1
 43
0
 10
64
 20
42.24999999999992
 10
-18.5
 20
42.24999999999992
 10
-18.5
 20
27.74999999999992
 10
64
 20
27.74999999999992
  0
LWPOLYLINE
  5
117
100
AcDbEntity
  8
0
  6
ByLayer
 62
  256
370
   -1
100
AcDbPolyline
 90
    4
 70
    1
 43
0
 10
0.7500000000062101
 20
42.24999999999992
 10
48.75000000000621
 20
42.24999999999992
 10
48.75000000000621
 20
27.74999999999992
 10
0.7500000000062101
 20
27.74999999999992
  0
LWPOLYLINE
  5
118
100
AcDbEntity
  8
0
  6
ByLayer
 62
  256
370
   -1
100
AcDbPolyline
 90
    4
 70
    1
 43
0
 10
-18.49999999999378
 20
-15.75000000000001
 10
64.0000000000062
 20
-15.75000000000001
 10
64.0000000000062
 20
-1.250000000000011
 10
-18.49999999999378
 20
-1.250000000000011
  0
LWPOLYLINE
  5
119
100
AcDbEntity
  8
0
  6
ByLayer
 62
  256
370
   -1
100
AcDbPolyline
 90
    4
 70
    1
 43
0
 10
24.75000000000621
 20
-1.250000000000011
 10
54.75000000000621
 20
-1.250000000000011
 10
54.75000000000621
 20
-15.75000000000001
 10
24.75000000000621
 20
-15.75000000000001
  0
LWPOLYLINE
  5
11A
100
AcDbEntity
  8
0
  6
ByLayer
 62
  256
370
   -1
100
AcDbPolyline
 90
    4
 70
    1
 43
0
 10
-18.5
 20
65.24999999999993
 10
64
 20
65.24999999999993
 10
64
 20
79.74999999999993
 10
-18.5
 20
79.74999999999993
  0
LWPOLYLINE
  5
11B
100
AcDbEntity
  8
0
  6
ByLayer
 62
  256
370
   -1
100
AcDbPolyline
 90
    4
 70
    1
 43
0
 10
0.7500000000062101
 20
79.74999999999993
 10
48.75000000000621
 20
79.74999999999993
 10
48.75000000000621
 20
65.24999999999993
 10
0.7500000000062101
 20
65.24999999999993
  0
INSERT
  5
11C
100
AcDbEntity
  8
0
  6
ByLayer
 62
  256
370
   -1
100
AcDbBlockReference
  2
button-5
 10
25
 20
21.74999999999992
 30
0
 41
1
 42
1
 43
0
 50
0
 70
    1
 71
    1
 44
0
 45
0
  0
INSERT
  5
11D
100
AcDbEntity
  8
0
  6
ByLayer
 62
  256
370
   -1
100
AcDbBlockReference
  2
button-6
 10
-18
 20
21.74999999999992
 30
0
 41
1
 42
1
 43
0
 50
0
 70
    1
 71
    1
 44
0
 45
0
  0
CIRCLE
  5
11E
100
AcDbEntity
  8
0
  6
ByLayer
 62
  256
370
   -1
100
AcDbCircle
 10
61.50000000000001
 20
56.24999999999992
 40
2.5
  0
CIRCLE
  5
11F
100
AcDbEntity
  8
0
  6
ByLayer
 62
  256
370
   -1
100
AcDbCircle
 10
61.50000000000001
 20
56.24999999999992
 40
1.5
  0
CIRCLE
  5
120
100
AcDbEntity
  8
0
  6
ByLayer
 62
  256
370
   -1
100
AcDbCircle
 10
18.49999999999999
 20
56.24999999999991
 40
2.5
  0
CIRCLE
  5
121
100
AcDbEntity
  8
0
  6
ByLayer
 62
  256
370
   -1
100
AcDbCircle
 10
18.49999999999999
 20
56.24999999999991
 40
1.5
  0
CIRCLE
  5
122
100
AcDbEntity
  8
0
  6
ByLayer
 62
  256
370
   -1
100
AcDbCircle
 10
-24.5
 20
56.24999999999991
 40
2.5
  0
CIRCLE
  5
123
100
AcDbEntity
  8
0
  6
ByLayer
 62
  256
370
   -1
100
AcDbCircle
 10
-24.5
 20
56.24999999999991
 40
1.5
  0
CIRCLE
  5
124
100
AcDbEntity
  8
0
  6
ByLayer
 62
  256
370
   -1
100
AcDbCircle
 10
61.5
 20
18.24999999999992
 40
2.5
  0
CIRCLE
  5
125
100
AcDbEntity
  8
0
  6
ByLayer
 62
  256
370
   -1
100
AcDbCircle
 10
61.5
 20
18.24999999999992
 40
1.5
  0
CIRCLE
  5
126
100
AcDbEntity
  8
0
  6
ByLayer
 62
  256
370
   -1
100
AcDbCircle
 10
18.5
 20
18.24999999999992
 40
2.5
  0
CIRCLE
  5
127
100
AcDbEntity
  8
0
  6
ByLayer
 62
  256
370
   -1
100
AcDbCircle
 10
18.5
 20
18.24999999999992
 40
1.5
  0
CIRCLE
  5
128
100
AcDbEntity
  8
0
  6
ByLayer
 62
  256
370
   -1
100
AcDbCircle
 10
-24.5
 20
18.24999999999992
 40
2.5
  0
CIRCLE
  5
129
100
AcDbEntity
  8
0
  6
ByLayer
 62
  256
370
   -1
100
AcDbCircle
 10
-24.5
 20
18.24999999999992
 40
1.5
  0
INSERT
  5
12A
100
AcDbEntity
  8
0
  6
ByLayer
 62
  256
370
   -1
100
AcDbBlockReference
  2
button-10
 10
25
 20
97.74999999999993
 30
0
 41
1
 42
1
 43
0
 50
0
 70
    1
 71
    1
 44
0
 45
0
  0
INSERT
  5
12B
100
AcDbEntity
  8
0
  6
ByLayer
 62
  256
370
   -1
100
AcDbBlockReference
  2
button-9
 10
-18
 20
97.74999999999993
 30
0
 41
1
 42
1
 43
0
 50
0
 70
    1
 71
    1
 44
0
 45
0
  0
INSERT
  5
12C
100
AcDbEntity
  8
0
  6
ByLayer
 62
  256
370
   -1
100
AcDbBlockReference
  2
button-11
 10
111
 20
97.74999999999993
 30
0
 41
1
 42
1
 43
0
 50
0
 70
    1
 71
    1
 44
0
 45
0
  0
INSERT
  5
12D
100
AcDbEntity
  8
0
  6
ByLayer
 62
  256
370
   -1
100
AcDbBlockReference
  2
button-12
 10
154
 20
97.74999999999993
 30
0
 41
1
 42
1
 43
0
 50
0
 70
    1
 71
    1
 44
0
 45
0
  0
LWPOLYLINE
  5
12E
100
AcDbEntity
  8
0
  6
ByLayer
 62
  256
370
   -1
100
AcDbPolyline
 90
    4
 70
    1
 43
0
 10
102
 20
65.24999999999993
 10
184.5
 20
65.24999999999993
 10
184.5
 20
79.74999999999993
 10
102
 20
79.74999999999993
  0
LWPOLYLINE
  5
12F
100
AcDbEntity
  8
0
  6
ByLayer
 62
  256
370
   -1
100
AcDbPolyline
 90
    4
 70
    1
 43
0
 10
121.2500000000001
 20
79.74999999999993
 10
169.2500000000001
 20
79.74999999999993
 10
169.2500000000001
 20
65.24999999999993
 10
121.2500000000001
 20
65.24999999999993
  0
CIRCLE
  5
130
100
AcDbEntity
  8
0
  6
ByLayer
 62
  256
370
   -1
100
AcDbCircle
 10
105
 20
76.74999999999993
 40
2
  0
CIRCLE
  5
131
100
AcDbEntity
  8
0
  6
ByLayer
 62
  256
370
   -1
100
AcDbCircle
 10
105
 20
68.24999999999993
 40
2
  0
CIRCLE
  5
132
100
AcDbEntity
  8
0
  6
ByLayer
 62
  256
370
   -1
100
AcDbCircle
 10
181.5
 20
76.74999999999993
 40
2
  0
CIRCLE
  5
133
100
AcDbEntity
  8
0
  6
ByLayer
 62
  256
370
   -1
100
AcDbCircle
 10
181.5
 20
68.24999999999993
 40
2
  0
LWPOLYLINE
  5
134
100
AcDbEntity
  8
0
  6
ByLayer
 62
  256
370
   -1
100
AcDbPolyline
 90
    4
 70
    1
 43
0
 10
102
 20
42.24999999999992
 10
184.5
 20
42.24999999999992
 10
184.5
 20
27.74999999999992
 10
102
 20
27.74999999999992
  0
LWPOLYLINE
  5
135
100
AcDbEntity
  8
0
  6
ByLayer
 62
  256
370
   -1
100
AcDbPolyline
 90
    4
 70
    1
 43
0
 10
121.2500000000001
 20
42.24999999999992
 10
169.2500000000001
 20
42.24999999999992
 10
169.2500000000001
 20
27.74999999999992
 10
121.2500000000001
 20
27.74999999999992
  0
CIRCLE
  5
136
100
AcDbEntity
  8
0
  6
ByLayer
 62
  256
370
   -1
100
AcDbCircle
 10
-13.5
 20
106.2499999999999
 40
1.5
  0
CIRCLE
  5
137
100
AcDbEntity
  8
0
  6
ByLayer
 62
  256
370
   -1
100
AcDbCircle
 10
29.50000000000001
 20
106.2499999999999
 40
1.5
  0
CIRCLE
  5
138
100
AcDbEntity
  8
0
  6
ByLayer
 62
  256
370
   -1
100
AcDbCircle
 10
72.5
 20
106.2499999999999
 40
1.5
  0
CIRCLE
  5
139
100
AcDbEntity
  8
0
  6
ByLayer
 62
  256
370
   -1
100
AcDbCircle
 10
115.5
 20
106.2499999999999
 40
1.5
  0
CIRCLE
  5
13A
100
AcDbEntity
  8
0
  6
ByLayer
 62
  256
370
   -1
100
AcDbCircle
 10
158.5
 20
106.2499999999999
 40
1.5
  0
CIRCLE
  5
13B
100
AcDbEntity
  8
0
  6
ByLayer
 62
  256
370
   -1
100
AcDbCircle
 10
158.5
 20
106.2499999999999
 40
2.5
  0
CIRCLE
  5
13C
100
AcDbEntity
  8
0
  6
ByLayer
 62
  256
370
   -1
100
AcDbCircle
 10
115.5
 20
106.2499999999999
 40
2.5
  0
CIRCLE
  5
13D
100
AcDbEntity
  8
0
  6
ByLayer
 62
  256
370
   -1
100
AcDbCircle
 10
72.5
 20
106.2499999999999
 40
2.5
  0
CIRCLE
  5
13E
100
AcDbEntity
  8
0
  6
ByLayer
 62
  256
370
   -1
100
AcDbCircle
 10
29.50000000000001
 20
106.2499999999999
 40
2.5
  0
CIRCLE
  5
13F
100
AcDbEntity
  8
0
  6
ByLayer
 62
  256
370
   -1
100
AcDbCircle
 10
-13.5
 20
106.2499999999999
 40
2.5
  0
INSERT
  5
140
100
AcDbEntity
  8
0
  6
ByLayer
 62
  256
370
   -1
100
AcDbBlockReference
  2
button
 10
129.5000000000062
 20
-1.875000000000012
 30
0
 41
1
 42
1
 43
0
 50
0
 70
    1
 71
    1
 44
0
 45
0
  0
CIRCLE
  5
141
100
AcDbEntity
  8
0
  6
ByLayer
 62
  256
370
   -1
100
AcDbCircle
 10
207.5
 20
106.2499999999999
 40
2.5
  0
MTEXT
  5
142
100
AcDbEntity
  8
Text
  6
ByLayer
 62
  256
370
   -1
100
AcDbMText
 10
137.6548115180676
 20
-18.97124562380682
 30
0
 40
3
 41
14.57143
 71
    1
 72
    1
  1
IDENT
  7
romanc
210
0
220
0
230
1
 50
0
 73
    2
 44
1
  0
MTEXT
  5
143
100
AcDbEntity
  8
Text
  6
ByLayer
 62
  256
370
   -1
100
AcDbMText
 10
35.99987350879137
 20
108.3770157709895
 30
0
 40
4
 41
15.61904888888889
 71
    1
 72
    1
  1
COM1
  7
romanc
210
0
220
0
230
1
 50
0
 73
    2
 44
1
  0
MTEXT
  5
144
100
AcDbEntity
  8
Text
  6
ByLayer
 62
  256
370
   -1
100
AcDbMText
 10
-7.536303353135823
 20
108.6595809151723
 30
0
 40
4
 41
24.19049777777778
 71
    1
 72
    1
  1
Marker
  7
romanc
210
0
220
0
230
1
 50
0
 73
    2
 44
1
  0
MTEXT
  5
145
100
AcDbEntity
  8
Text
  6
ByLayer
 62
  256
370
   -1
100
AcDbMText
 10
121.0939630129675
 20
108.5279586898906
 30
0
 40
4
 41
12.95238666666667
 71
    1
 72
    1
  1
DME
  7
romanc
210
0
220
0
230
1
 50
0
 73
    2
 44
1
  0
MTEXT
  5
146
100
AcDbEntity
  8
Text
  6
ByLayer
 62
  256
370
   -1
100
AcDbMText
 10
56.20358952826378
 20
51.61492479367037
 30
0
 40
3
 41
11.57143666666667
 71
    1
 72
    1
  1
ADF1
  7
romanc
210
0
220
0
230
1
 50
0
 73
    2
 44
1
  0
MTEXT
  5
147
100
AcDbEntity
  8
Text
  6
ByLayer
 62
  256
370
   -1
100
AcDbMText
 10
12.47541327349452
 20
51.73567912879125
 30
0
 40
3
 41
12.14286333333333
 71
    1
 72
    1
  1
NAV1
  7
romanc
210
0
220
0
230
1
 50
0
 73
    2
 44
1
  0
MTEXT
  5
148
100
AcDbEntity
  8
Text
  6
ByLayer
 62
  256
370
   -1
100
AcDbMText
 10
-30.76974564079122
 20
51.75
 30
0
 40
3
 41
11.71428666666667
 71
    1
 72
    1
  1
COM1
  7
romanc
210
0
220
0
230
1
 50
0
 73
    2
 44
1
  0
MTEXT
  5
149
100
AcDbEntity
  8
Text
  6
ByLayer
 62
  256
370
   -1
100
AcDbMText
 10
-30.96295257698464
 20
13.74636529976266
 30
0
 40
3
 41
12.42857333333333
 71
    1
 72
    1
  1
COM2
  7
romanc
210
0
220
0
230
1
 50
0
 73
    2
 44
1
  0
MTEXT
  5
14A
100
AcDbEntity
  8
Text
  6
ByLayer
 62
  256
370
   -1
100
AcDbMText
 10
11.96824506598684
 20
13.55315836356925
 30
0
 40
3
 41
12.85715
 71
    1
 72
    1
  1
NAV2
  7
romanc
210
0
220
0
230
1
 50
0
 73
    2
 44
1
  0
MTEXT
  5
14B
100
AcDbEntity
  8
Text
  6
ByLayer
 62
  256
370
   -1
100
AcDbMText
 10
55.47906351753853
 20
13.64976183166596
 30
0
 40
3
 41
12.28572333333333
 71
    1
 72
    1
  1
ADF2
  7
romanc
210
0
220
0
230
1
 50
0
 73
    2
 44
1
  0
LWPOLYLINE
  5
14C
100
AcDbEntity
  8
Text
  6
ByLayer
 62
  256
370
   -1
100
AcDbPolyline
 90
    4
 70
    1
 43
0
 10
-31.99317166352949
 20
113.7481542296348
 10
224.5000000000062
 20
113.7481542296348
 10
224.5000000000062
 20
-27.4424551857936
 10
-31.99317166352949
 20
-27.4424551857936
  0
MTEXT
  5
14D
100
AcDbEntity
  8
Text
  6
ByLayer
 62
  256
370
   -1
100
AcDbMText
 10
163.3197868645541
 20
107.9754007898829
 30
0
 40
4
 41
15.42858222222222
 71
    1
 72
    1
  1
ADF1
  7
romanc
210
0
220
0
230
1
 50
0
 73
    2
 44
1
  0
MTEXT
  5
14E
100
AcDbEntity
  8
Text
  6
ByLayer
 62
  256
370
   -1
100
AcDbMText
 10
213.1410350506482
 20
108.0861656338983
 30
0
 40
4
 41
8
 71
    1
 72
    1
  1
ON
  7
romanc
210
0
220
0
230
1
 50
0
 73
    2
 44
1
  0
DIMENSION
  5
14F
100
AcDbEntity
  8
cotas
  6
ByLayer
 62
  256
370
   -1
100
AcDbDimension
  2
*D2
 10
224.5000000000062
 20
119.6323331456397
 30
0
 11
96.25341416823835
 21
121.5073331456397
 31
0
 70
   32
 71
    5
 72
    0
  3
Standard
 53
0
210
0
220
0
230
1
100
AcDbAlignedDimension
 13
-31.99317166352949
 23
113.7481542296348
 33
0
 14
224.5000000000062
 24
113.7481542296348
 34
0
100
AcDbRotatedDimension
  0
DIMENSION
  5
150
100
AcDbEntity
  8
cotas
  6
ByLayer
 62
  256
370
   -1
100
AcDbDimension
  2
*D3
 10
232.9682277046668
 20
-27.4424551857936
 30
0
 11
231.0932277046668
 21
43.1528495219206
 31
0
 70
   32
 71
    5
 72
    0
  3
Standard
 53
0
210
0
220
0
230
1
100
AcDbAlignedDimension
 13
224.5000000000062
 23
113.7481542296348
 33
0
 14
224.5000000000062
 24
-27.4424551857936
 34
0
 50
90
100
AcDbRotatedDimension
  0
DIMENSION
  5
151
100
AcDbEntity
  8
cotas
  6
ByLayer
 62
  256
370
   -1
100
AcDbDimension
  2
*D4
 10
159.5000000000062
 20
3.794161145551521
 30
0
 11
144.5000000000062
 21
5.66916114555152
 31
0
 70
   32
 71
    5
 72
    0
  3
Standard
 53
0
210
0
220
0
230
1
100
AcDbAlignedDimension
 13
129.5000000000062
 23
-1.875000000000012
 33
0
 14
159.5000000000062
 24
-1.875000000000012
 34
0
100
AcDbRotatedDimension
  0
DIMENSION
  5
152
100
AcDbEntity
  8
cotas
  6
ByLayer
 62
  256
370
   -1
100
AcDbDimension
  2
*D5
 10
155.0000000000062
 20
-7.875000000000011
 30
0
 11
144.5000000000062
 21
-6.000000000000011
 31
0
 70
   32
 71
    5
 72
    0
  3
Standard
 53
0
210
0
220
0
230
1
100
AcDbAlignedDimension
 13
134.0000000000062
 23
-7.875000000000007
 33
0
 14
155.0000000000062
 24
-7.875000000000011
 34
0
100
AcDbRotatedDimension
  0
DIMENSION
  5
153
100
AcDbEntity
  8
cotas
  6
ByLayer
 62
  256
370
   -1
100
AcDbDimension
  2
*D6
 10
124.6381936313675
 20
-13.87500000000001
 30
0
 11
122.7631936313675
 21
-7.875000000000012
 31
0
 70
   32
 71
    5
 72
    0
  3
Standard
 53
0
210
0
220
0
230
1
100
AcDbAlignedDimension
 13
129.5000000000062
 23
-1.875000000000012
 33
0
 14
129.5000000000062
 24
-13.87500000000001
 34
0
 50
90
100
AcDbRotatedDimension
  0
DIMENSION
  5
154
100
AcDbEntity
  8
cotas
  6
ByLayer
 62
  256
370
   -1
100
AcDbDimension
  2
*D7
 10
155.0000000000062
 20
-13.87500000000001
 30
0
 11
153.1250000000062
 21
-10.87500000000001
 31
0
 70
   32
 71
    5
 72
    0
  3
Standard
 53
0
210
0
220
0
230
1
100
AcDbAlignedDimension
 13
155.0000000000062
 23
-7.875000000000011
 33
0
 14
159.5000000000062
 24
-13.87500000000001
 34
0
 50
90
100
AcDbRotatedDimension
  0
DIMENSION
  5
155
100
AcDbEntity
  8
cotas
  6
ByLayer
 62
  256
370
   -1
100
AcDbDimension
  2
*D8
 10
-18.00000000000001
 20
53.74999999999995
 30
0
 11
-16.50000000000001
 21
55.62499999999995
 31
0
 70
   32
 71
    5
 72
    0
  3
Standard
 53
0
210
0
220
0
230
1
100
AcDbAlignedDimension
 13
-15.00000000000001
 23
53.74999999999995
 33
0
 14
-18.00000000000001
 24
59.74999999999994
 34
0
100
AcDbRotatedDimension
  0
CIRCLE
  5
156
100
AcDbEntity
  8
0
  6
ByLayer
 62
  256
370
   -1
100
AcDbCircle
 10
-15.5
 20
76.74999999999993
 40
1.5
  0
CIRCLE
  5
157
100
AcDbEntity
  8
0
  6
ByLayer
 62
  256
370
   -1
100
AcDbCircle
 10
-15.5
 20
68.24999999999993
 40
1.5
  0
CIRCLE
  5
158
100
AcDbEntity
  8
0
  6
ByLayer
 62
  256
370
   -1
100
AcDbCircle
 10
61
 20
76.74999999999993
 40
1.5
  0
CIRCLE
  5
159
100
AcDbEntity
  8
0
  6
ByLayer
 62
  256
370
   -1
100
AcDbCircle
 10
61
 20
68.24999999999993
 40
1.5
  0
CIRCLE
  5
15A
100
AcDbEntity
  8
0
  6
ByLayer
 62
  256
370
   -1
100
AcDbCircle
 10
-15.5
 20
39.24999999999992
 40
1.5
  0
CIRCLE
  5
15B
100
AcDbEntity
  8
0
  6
ByLayer
 62
  256
370
   -1
100
AcDbCircle
 10
-15.5
 20
30.74999999999992
 40
1.5
  0
CIRCLE
  5
15C
100
AcDbEntity
  8
0
  6
ByLayer
 62
  256
370
   -1
100
AcDbCircle
 10
61
 20
39.24999999999992
 40
1.5
  0
CIRCLE
  5
15D
100
AcDbEntity
  8
0
  6
ByLayer
 62
  256
370
   -1
100
AcDbCircle
 10
61
 20
30.74999999999992
 40
1.5
  0
CIRCLE
  5
15E
100
AcDbEntity
  8
0
  6
ByLayer
 62
  256
370
   -1
100
AcDbCircle
 10
-15.5
 20
-4.250000000000011
 40
1.5
  0
CIRCLE
  5
15F
100
AcDbEntity
  8
0
  6
ByLayer
 62
  256
370
   -1
100
AcDbCircle
 10
-15.5
 20
-12.75000000000001
 40
1.5
  0
CIRCLE
  5
160
100
AcDbEntity
  8
0
  6
ByLayer
 62
  256
370
   -1
100
AcDbCircle
 10
61
 20
-4.250000000000011
 40
1.5
  0
CIRCLE
  5
161
100
AcDbEntity
  8
0
  6
ByLayer
 62
  256
370
   -1
100
AcDbCircle
 10
61
 20
-12.75000000000001
 40
1.5
  0
CIRCLE
  5
162
100
AcDbEntity
  8
0
  6
ByLayer
 62
  256
370
   -1
100
AcDbCircle
 10
105
 20
39.24999999999992
 40
1.5
  0
CIRCLE
  5
163
100
AcDbEntity
  8
0
  6
ByLayer
 62
  256
370
   -1
100
AcDbCircle
 10
105
 20
30.74999999999992
 40
1.5
  0
CIRCLE
  5
164
100
AcDbEntity
  8
0
  6
ByLayer
 62
  256
370
   -1
100
AcDbCircle
 10
181.5
 20
39.24999999999992
 40
1.5
  0
CIRCLE
  5
165
100
AcDbEntity
  8
0
  6
ByLayer
 62
  256
370
   -1
100
AcDbCircle
 10
181.5
 20
30.74999999999992
 40
1.5
  0
ENDSEC
  0
SECTION
  2
OBJECTS
  0
DICTIONARY
  5
C
330
0
100
AcDbDictionary
281
    1
  3
ACAD_GROUP
350
D
  0
DICTIONARY
  5
D
330
C
100
AcDbDictionary
281
    1
  0
ENDSEC
  0
EOF
